<svg width="16" height="20" fill="none" xmlns="http://www.w3.org/2000/svg"><path fill-rule="evenodd" clip-rule="evenodd" d="M12.606 4.982a7.27 7.27 0 00-1.111-.326 4.021 4.021 0 001.484-3.129V.586A.586.586 0 0012.394 0h-.942A4.054 4.054 0 008 1.94 4.054 4.054 0 004.548 0h-.941a.586.586 0 00-.586.586v.941a4.02 4.02 0 001.485 3.129 7.267 7.267 0 00-1.111.326C.469 6.12.504 8.805.51 9.322v.05c0 2.654.894 5.428 2.92 7.76C4.9 18.82 6.78 20 8 20c1.222 0 3.1-1.18 4.57-2.869a11.755 11.755 0 002.92-7.759v-.05c.006-.537.033-3.205-2.884-4.34zm-4.02-.944a2.868 2.868 0 012.866-2.866h.355v.355a2.869 2.869 0 01-2.865 2.866h-.356v-.355zm-4.393-2.51v-.356h.355a2.868 2.868 0 012.866 2.866v.355H7.06a2.869 2.869 0 01-2.866-2.866zm7.492 14.834C10.154 18.124 8.584 18.828 8 18.828c-.584 0-2.155-.706-3.685-2.466a10.583 10.583 0 01-2.633-6.99c0-1.683.68-2.73 2.137-3.298C5.13 5.565 6.79 5.565 8 5.565c1.212 0 2.871 0 4.181.51 1.458.566 2.137 1.614 2.137 3.297 0 2.424-.824 4.91-2.633 6.99zM6.117 12.47a.586.586 0 100-1.172.586.586 0 000 1.172zM4.821 8.745a.586.586 0 11-1.172 0 .586.586 0 011.172 0zM8 9.33a.586.586 0 100-1.172.586.586 0 000 1.172zm.585 5.69a.586.586 0 11-1.172 0 .586.586 0 011.172 0zm3.18-5.69a.586.586 0 100-1.172.586.586 0 000 1.172zm-1.297 2.552a.586.586 0 11-1.172 0 .586.586 0 011.172 0z" fill="#fff"/></svg>