<svg width="50" height="50" fill="none" xmlns="http://www.w3.org/2000/svg"><path d="M5.86 23.44h26.367v2.929H5.859v-2.93zm8.788 5.859h17.579v2.93H14.648v-2.93zM5.86 35.158h26.367v2.93H5.859v-2.93z" fill="#fff"/><path d="M0 43.947h5.86v6.051l7.824-6.05h24.402V.001H0v43.945zM2.93 2.932h32.226v38.085H12.683L8.79 44.03v-3.012H2.93V2.932z" fill="#fff"/><path d="M13.184 6.42v13.53l13.529-6.765-13.53-6.764zm2.93 4.741l4.048 2.024-4.049 2.025v-4.05zm29.491-8.229a4.4 4.4 0 00-4.394 4.394V23.44h.015c.224 11.007 2.9 17.826 3.02 18.123l1.36 3.4 1.36-3.4c.118-.297 2.795-7.116 3.019-18.123H50V7.326a4.4 4.4 0 00-4.395-4.394zm0 32.77c-.661-2.943-1.337-7.135-1.448-12.263h2.897c-.11 5.128-.787 9.32-1.449 12.263zM44.142 20.51V7.326c0-.808.657-1.465 1.465-1.465.807 0 1.464.657 1.464 1.465V20.51h-2.93zM5.86 29.299h5.859v2.93h-5.86v-2.93z" fill="#fff"/></svg>