<svg width="50" height="50" fill="none" xmlns="http://www.w3.org/2000/svg"><path d="M47.962 25a7.405 7.405 0 001.51-5.952 7.354 7.354 0 00-3.7-5.157 7.417 7.417 0 00-1.19-6.486 7.44 7.44 0 00-5.924-2.962c-.33 0-.657.022-.98.066A7.41 7.41 0 0030.867 0 7.39 7.39 0 0025 2.897 7.39 7.39 0 0019.132 0a7.41 7.41 0 00-6.811 4.513 7.413 7.413 0 00-.984-.066 7.335 7.335 0 00-5.922 2.96 7.42 7.42 0 00-1.187 6.486 7.354 7.354 0 00-3.7 5.159A7.406 7.406 0 002.037 25a7.405 7.405 0 00-1.51 5.95 7.354 7.354 0 003.7 5.158 7.417 7.417 0 001.19 6.486 7.44 7.44 0 005.924 2.962c.329 0 .656-.022.98-.066A7.41 7.41 0 0019.132 50 7.39 7.39 0 0025 47.103 7.39 7.39 0 0030.867 50a7.41 7.41 0 006.812-4.513c.325.044.653.066.984.066a7.336 7.336 0 005.922-2.96 7.42 7.42 0 001.187-6.485 7.355 7.355 0 003.7-5.16A7.407 7.407 0 0047.963 25zM23.469 42.601a4.342 4.342 0 01-4.337 4.337 4.34 4.34 0 01-4.254-3.506l-.021-.108a4.317 4.317 0 01.424-2.719 7.349 7.349 0 003.861 1.087V38.63a4.308 4.308 0 01-3.067-1.27 4.308 4.308 0 01-1.27-3.066h-3.061c0 1.5.445 2.933 1.27 4.147a7.338 7.338 0 00-1.276 4.035 4.307 4.307 0 01-3.87-1.718 4.348 4.348 0 01-.333-4.69l.363-.663-.618-1.41-.687-.201a4.317 4.317 0 01-3.052-3.39 4.342 4.342 0 011.237-3.874h7.116a7.346 7.346 0 002.007 3.7 7.394 7.394 0 005.232 2.167h4.336v10.204zm0-13.265h-4.336a4.342 4.342 0 01-4.33-4.093l-.002-.023a4.308 4.308 0 011.265-3.288l-2.164-2.164a7.346 7.346 0 00-2.008 3.7H4.776a4.343 4.343 0 01-1.237-3.872 4.317 4.317 0 013.052-3.39l.688-.201.618-1.41-.363-.663a4.35 4.35 0 01.331-4.69 4.3 4.3 0 013.873-1.716 7.338 7.338 0 001.276 4.031 7.344 7.344 0 00-1.27 4.147h3.061c0-1.158.451-2.247 1.27-3.066a4.309 4.309 0 013.067-1.27v-3.06a7.35 7.35 0 00-3.861 1.085 4.318 4.318 0 01-.425-2.716l.022-.11a4.339 4.339 0 014.254-3.506 4.342 4.342 0 014.337 4.337v21.939zM26.53 7.398a4.342 4.342 0 014.337-4.337 4.34 4.34 0 014.255 3.506l.02.106a4.315 4.315 0 01-.424 2.72 7.35 7.35 0 00-3.86-1.086v3.062c1.158 0 2.247.45 3.066 1.27a4.308 4.308 0 011.27 3.066h3.062a7.35 7.35 0 00-1.27-4.147 7.338 7.338 0 001.276-4.035 4.307 4.307 0 013.87 1.718 4.348 4.348 0 01.333 4.69l-.364.664.307.693.313.716.687.201a4.316 4.316 0 013.051 3.39 4.34 4.34 0 01-1.237 3.875h-7.116a7.346 7.346 0 00-2.007-3.7 7.394 7.394 0 00-5.232-2.168H26.53V7.398zm19.93 23.005a4.317 4.317 0 01-3.052 3.39l-.685.2-.62 1.413.363.662a4.35 4.35 0 01-.331 4.69 4.3 4.3 0 01-3.873 1.714 7.338 7.338 0 00-1.276-4.03 7.346 7.346 0 001.27-4.147h-3.061a4.308 4.308 0 01-1.27 3.066 4.308 4.308 0 01-3.067 1.27v3.062c1.385 0 2.71-.38 3.861-1.086a4.317 4.317 0 01.424 2.72l-.02.106a4.34 4.34 0 01-4.255 3.506 4.342 4.342 0 01-4.337-4.337V20.663h4.336a4.342 4.342 0 014.33 4.093l.001.023a4.307 4.307 0 01-1.265 3.288l2.165 2.164a7.345 7.345 0 002.008-3.7h7.117a4.343 4.343 0 011.237 3.872z" fill="#fff"/></svg>