<svg width="34" height="34" fill="none" xmlns="http://www.w3.org/2000/svg"><path d="M2.782 9.935L.879 8.99a8.316 8.316 0 00-.752 2.307l2.094.359a6.251 6.251 0 01.56-1.721zm29.005 1.761l2.096-.348a8.375 8.375 0 00-.744-2.309l-1.912.932a6.31 6.31 0 01.56 1.725z" fill="#CD2DA0"/><path d="M33.365 19.56a6.334 6.334 0 00-1.131-1.626 8.512 8.512 0 001.7-4.17l-2.11-.251a6.374 6.374 0 01-1.84 3.761l-.886.88 1.009.733a4.217 4.217 0 01-.957 7.372l-.028.01a4.218 4.218 0 01-1.498.29 4.263 4.263 0 01-4.166-3.4l-2.08.426a6.392 6.392 0 006.246 5.1c.064 0 .125-.008.189-.01a6.328 6.328 0 01-9.75 1.556v-8.568a4.26 4.26 0 013.187-1.478 4.212 4.212 0 013.4 1.7l1.699-1.275a6.336 6.336 0 00-8.286-1.678v-4.78a7.377 7.377 0 003.187.722 7.464 7.464 0 006.439-3.719l-1.84-1.062a5.333 5.333 0 01-4.6 2.656 5.234 5.234 0 01-3.186-1.1V4.272a5.28 5.28 0 018.552.073 8.67 8.67 0 00-5.494 1.117l1.085 1.825a6.463 6.463 0 015.857-.371h.011c.814.362 1.544.89 2.14 1.552l1.572-1.43a8.486 8.486 0 00-2.385-1.832 7.414 7.414 0 00-12.4-2.95A7.414 7.414 0 004.6 5.206a8.528 8.528 0 00-2.35 1.792l1.563 1.44A6.418 6.418 0 015.927 6.92a6.46 6.46 0 015.863.37l1.084-1.826a8.669 8.669 0 00-5.488-1.12 5.292 5.292 0 018.552-.088V8.5a3.187 3.187 0 01-5.577 2.107l-1.594 1.406a5.312 5.312 0 003.984 1.798 5.257 5.257 0 003.187-1.09v4.086a6.347 6.347 0 00-9.434 4.228l2.084.425a4.223 4.223 0 017.35-1.922v10.703a6.341 6.341 0 01-9.75-1.566c.063 0 .125.01.189.01a6.392 6.392 0 006.247-5.1l-2.082-.425a4.263 4.263 0 01-4.165 3.4 4.217 4.217 0 01-1.501-.29l-.029-.011a4.218 4.218 0 01-.956-7.372l1.007-.734-.885-.878A6.396 6.396 0 012.17 13.47l-2.113.234c.176 1.539.768 3 1.712 4.228a6.335 6.335 0 001.806 10.093A8.48 8.48 0 0017 32.115a8.48 8.48 0 0013.424-4.094 6.335 6.335 0 002.941-8.462z" fill="#CD2DA0"/></svg>