<svg width="50" height="50" fill="none" xmlns="http://www.w3.org/2000/svg"><g clip-path="url(#clip0)" fill="#fff"><path d="M43.652 8.96h-8.43V6.975c0-3.5-2.848-6.348-6.348-6.348H6.348A6.355 6.355 0 000 6.975v21.484c0 3.5 2.848 6.348 6.348 6.348h1.985v6.233l6.479-3.6a6.357 6.357 0 006.314 5.7h9.321l11.22 6.233V43.14h1.985c3.5 0 6.348-2.847 6.348-6.347V15.308c0-3.5-2.848-6.348-6.348-6.348zm3.418 27.832a3.422 3.422 0 01-3.418 3.419h-4.915v4.183l-7.53-4.183h-10.08a3.422 3.422 0 01-3.419-3.419V15.308a3.422 3.422 0 013.418-3.418h22.526a3.422 3.422 0 013.418 3.418v21.484zM2.93 28.46V6.975a3.422 3.422 0 013.418-3.418h22.526a3.422 3.422 0 013.418 3.418V8.96H21.126a6.355 6.355 0 00-6.347 6.348v18.8l-3.516 1.953v-4.184H6.348A3.422 3.422 0 012.93 28.46z"/><path d="M23.092 24.545h18.595v2.93H23.092v-2.93zm0 6.437h11.833v2.93H23.092v-2.93zm0-12.891h18.575v2.93H23.092v-2.93z"/></g><defs><clipPath id="clip0"><path fill="#fff" d="M0 0h50v50H0z"/></clipPath></defs></svg>