<svg width="50" height="50" fill="none" xmlns="http://www.w3.org/2000/svg"><path d="M27.597 0H0v50h50V0H27.597zM2.941 2.941h19.462l-2.647 4.412H2.94V2.94zM47.06 47.06H2.94V10.294h18.48l4.412-7.353h21.226V47.06z" fill="#fff"/><path d="M5.882 32.353H22.06V17.647H5.882v14.706zm2.942-11.765h10.294v8.824H8.824v-8.824zM5.882 35.294H22.06v2.941H5.882v-2.94zm0 5.882H22.06v2.942H5.882v-2.942zm38.236 2.942v-8.824H27.94v8.824h16.177zm-13.236-5.883h10.294v2.941H30.882v-2.94zm-2.941-8.823h16.177v2.94H27.94v-2.94zm0-5.882h16.177v2.94H27.94v-2.94zm0-5.883h16.177v2.941H27.94v-2.94zm7.353-10.294h2.941v2.941h-2.94V7.353zm-5.882 0h2.94v2.941h-2.94V7.353zm11.764 0h2.942v2.941h-2.942V7.353z" fill="#fff"/></svg>