<svg width="34" height="34" fill="none" xmlns="http://www.w3.org/2000/svg"><path d="M31.941 27.265V16.934A6.98 6.98 0 0024.97 9.96c-3.85 0-6.973 3.133-6.973 6.973v10.38a9.17 9.17 0 00-.996 1.544 9.243 9.243 0 00-4.17-4.088 6.972 6.972 0 003.174-5.844v-1.992A6.98 6.98 0 009.03 9.96H.996a.996.996 0 00-.996.996c0 1.92.787 3.66 2.059 4.923v3.046a6.973 6.973 0 003.168 5.84C2.233 26.194 0 29.32 0 33.004c0 .55.446.996.996.996h32.008c.55 0 .996-.446.996-.996a9.026 9.026 0 00-2.059-5.739zM2.094 11.953H9.03a4.99 4.99 0 014.88 3.985H7.04c-2.438 0-4.477-1.718-4.945-3.985zm1.957 6.973v-1.657c.907.424 1.92.66 2.988.66h6.973v.997a4.986 4.986 0 01-4.98 4.98 4.986 4.986 0 01-4.981-4.98zM2.065 32.008c.496-3.4 3.485-6.11 6.966-6.11 3.513 0 6.428 2.662 6.905 6.11H2.065zm22.904-20.055a4.989 4.989 0 014.88 3.985h-2.608a6.957 6.957 0 01-5.549-2.75 4.958 4.958 0 013.277-1.235zm-4.98 4.98c0-.752.168-1.466.468-2.107a8.945 8.945 0 006.784 3.104h2.708v.996a4.986 4.986 0 01-4.98 4.98 4.986 4.986 0 01-4.98-4.98v-1.992zm9.96 6.867v1.64a9.002 9.002 0 00-1.176-.674 7.017 7.017 0 001.176-.966zm-9.96 0c.356.365.752.69 1.181.97a8.876 8.876 0 00-1.182.685V23.8zm-1.925 8.208c.477-3.449 3.392-6.11 6.905-6.11 3.481 0 6.47 2.71 6.966 6.11h-13.87z" fill="#0091C8"/><path d="M19.471 0C18.509 0 17.663.391 17 1.137 16.337.391 15.49 0 14.529 0c-1.944 0-3.467 1.616-3.467 3.679 0 2.165 1.683 3.586 4.013 5.552.407.343.827.698 1.273 1.084a.994.994 0 001.304 0c.446-.386.866-.74 1.273-1.084 2.16-1.824 4.013-3.308 4.013-5.553C22.938 1.616 21.415 0 19.471 0zM17.64 7.709c-.21.176-.422.356-.64.541l-.64-.541c-2.233-1.885-3.306-2.843-3.306-4.03 0-.838.507-1.687 1.475-1.687 1.07 0 1.483 1.318 1.512 1.414a.992.992 0 001.918 0c.029-.096.442-1.414 1.512-1.414.968 0 1.475.849 1.475 1.687 0 1.237-1.256 2.3-3.306 4.03z" fill="#0091C8"/></svg>