<svg width="32" height="34" fill="none" xmlns="http://www.w3.org/2000/svg"><path d="M25.823 0v2.082h2.348l-4.58 4.343a8.9 8.9 0 00-6.382-2.691A8.933 8.933 0 009.394 8.35 8.99 8.99 0 009 8.342c-4.921 0-8.926 4.004-8.926 8.926 0 4.57 3.452 8.348 7.886 8.865V28.9H4.843v2.081H7.96V34h2.081v-3.019h3.253V28.9H10.04v-2.767a8.944 8.944 0 006.775-4.556c.13.006.261.009.393.009 4.922 0 8.926-4.004 8.926-8.926a8.872 8.872 0 00-1.266-4.578l4.975-4.718V5.95h2.081V0h-6.102zM9 24.113a6.852 6.852 0 01-6.845-6.845c0-3.627 2.836-6.603 6.407-6.83a8.913 8.913 0 00-.28 2.222c0 4.015 2.665 7.42 6.319 8.537A6.84 6.84 0 019 24.113zm6.537-4.815c-2.969-.748-5.173-3.44-5.173-6.638 0-.706.107-1.388.307-2.03 2.969.748 5.173 3.44 5.173 6.638a6.81 6.81 0 01-.307 2.03zm2.109.192a8.91 8.91 0 00.28-2.222c0-4.015-2.665-7.42-6.32-8.537a6.841 6.841 0 015.602-2.916 6.852 6.852 0 016.845 6.845c0 3.627-2.836 6.604-6.407 6.83z" fill="#FDB74F"/></svg>