<svg width="45" height="45" fill="none" xmlns="http://www.w3.org/2000/svg"><path d="M44.341 21.677c-.099-.124-2.472-3.069-6.319-6.043-2.271-1.756-4.59-3.158-6.892-4.167-2.797-1.227-5.578-1.873-8.271-1.926a13.134 13.134 0 00-.717 0c-2.694.053-5.475.7-8.272 1.926-2.301 1.009-4.62 2.411-6.892 4.167C3.13 18.608.758 21.553.659 21.677L0 22.5l.659.824c.1.124 2.472 3.069 6.319 6.042 2.272 1.756 4.59 3.159 6.892 4.168 2.797 1.226 5.578 1.872 8.272 1.925a12.934 12.934 0 00.716 0c2.694-.053 5.475-.699 8.272-1.925 2.302-1.01 4.62-2.412 6.892-4.168 3.847-2.973 6.22-5.918 6.319-6.042L45 22.5l-.659-.823zm-32.895 7.589a33.875 33.875 0 01-2.806-1.948A40.36 40.36 0 013.43 22.5a40.367 40.367 0 015.209-4.817 33.834 33.834 0 012.806-1.948 12.885 12.885 0 00-1.91 6.765c0 2.478.7 4.795 1.91 6.766zm11.37 3.556c-.105.002-.21.005-.316.005-.106 0-.21-.003-.316-.005-5.549-.168-10.01-4.733-10.01-10.322 0-5.588 4.461-10.154 10.01-10.321.105-.003.21-.006.316-.006.106 0 .21.004.316.006 5.549.167 10.011 4.733 10.011 10.321 0 5.589-4.462 10.154-10.01 10.322zm13.545-5.504a33.828 33.828 0 01-2.806 1.948 12.885 12.885 0 001.91-6.766c0-2.477-.7-4.794-1.91-6.765a33.91 33.91 0 012.806 1.948 40.358 40.358 0 015.208 4.817 40.351 40.351 0 01-5.208 4.818z" fill="#fff"/><path d="M22.5 15.002c-4.134 0-7.498 3.364-7.498 7.498 0 4.135 3.364 7.499 7.498 7.499 4.135 0 7.498-3.364 7.498-7.498 0-4.135-3.363-7.499-7.498-7.499zm0 12.36a4.867 4.867 0 01-4.861-4.861 4.867 4.867 0 014.861-4.862 4.867 4.867 0 014.861 4.861 4.867 4.867 0 01-4.861 4.862z" fill="#fff"/></svg>