<svg width="34" height="32" fill="none" xmlns="http://www.w3.org/2000/svg"><path d="M9.077 12.576h1.92v1.92h-1.92v-1.92z" fill="#55ACEE"/><path d="M32.47 13.575a10.076 10.076 0 00-3.575-3.414l-.968-3.723h-2.906C24.533 2.843 21.444.063 17.717.063h-1.304C12.348.063 9.04 3.37 9.04 7.434v1.992H6.073l-.968 3.722a10.08 10.08 0 00-3.575 3.415A10.01 10.01 0 000 21.892c0 5.534 4.502 10.036 10.037 10.036a10.04 10.04 0 008.446-4.62 9.977 9.977 0 005.48 1.632C29.498 28.94 34 24.438 34 18.904c0-1.892-.53-3.734-1.53-5.329zm-8.507 13.373a7.99 7.99 0 01-3.856-.986l1.036-1.63c.85.448 1.818.702 2.844.702a6.126 6.126 0 006.119-6.119 6.126 6.126 0 00-6.119-6.119 6.126 6.126 0 00-6.118 6.12c0 1.628.64 3.11 1.68 4.208l-1.06 1.67a8.007 8.007 0 01-2.57-5.89c0-.748.101-1.478.296-2.174a7.97 7.97 0 01.86-1.994 8.043 8.043 0 013.261-3.014l.401-.203.803-3.089h4.847l.802 3.089.4.203a8.011 8.011 0 014.419 7.182c0 4.436-3.609 8.044-8.045 8.044zM5.925 21.902a4.14 4.14 0 014.136-4.135 4.14 4.14 0 014.135 4.135 4.14 4.14 0 01-4.135 4.136 4.14 4.14 0 01-4.136-4.136zm13.936-2.987a4.13 4.13 0 014.126-4.126 4.131 4.131 0 014.127 4.126 4.131 4.131 0 01-4.127 4.127 4.131 4.131 0 01-4.126-4.127zm-8.828-11.48a5.386 5.386 0 015.38-5.38h1.304a5.388 5.388 0 015.286 4.383H20l-.968 3.723a10.074 10.074 0 00-3.515 3.32 10.01 10.01 0 00-.55-.333L14 9.426h-2.967V7.434zm-9.04 14.457a8.012 8.012 0 014.417-7.183l.401-.203.802-3.088h4.847l.803 3.088.4.203c.33.167.646.354.944.56a9.912 9.912 0 00-.546 1.995 6.097 6.097 0 00-4-1.49 6.134 6.134 0 00-6.128 6.128c0 1.632.642 3.117 1.686 4.216l-1.056 1.663a8.02 8.02 0 01-2.57-5.89zm8.044 8.044a7.995 7.995 0 01-3.857-.986l1.032-1.624c.851.45 1.82.704 2.85.704a6.134 6.134 0 005.559-3.553 10.05 10.05 0 001.3 1.571 8.048 8.048 0 01-6.884 3.888z" fill="#55ACEE"/><path d="M23.003 9.589h1.92v1.92h-1.92V9.59z" fill="#55ACEE"/></svg>