<svg width="45" height="45" fill="none" xmlns="http://www.w3.org/2000/svg"><g clip-path="url(#clip0)" fill="#fff"><path d="M36.236 5.69A19.298 19.298 0 0022.5 0 19.298 19.298 0 008.764 5.69a19.298 19.298 0 00-5.69 13.736 19.298 19.298 0 005.69 13.736 19.283 19.283 0 0012.418 5.645V45l2.081-1.477c.366-.26 9.025-6.42 13.254-10.65a18.118 18.118 0 003.995-6.069 19.61 19.61 0 001.413-7.378c0-5.189-2.02-10.067-5.69-13.736zM23.818 39.862v-3.646H22.5c-9.258 0-16.79-7.532-16.79-16.79s7.532-16.79 16.79-16.79 16.79 7.532 16.79 16.79c0 4.48-1.647 8.594-4.636 11.583-2.844 2.843-7.97 6.74-10.836 8.852z"/><path d="M22.5 6.96c-6.874 0-12.466 5.592-12.466 12.466 0 6.873 5.592 12.466 12.466 12.466s12.466-5.593 12.466-12.466c0-6.874-5.592-12.466-12.466-12.466zm0 22.296c-5.42 0-9.83-4.41-9.83-9.83s4.41-9.83 9.83-9.83 9.83 4.41 9.83 9.83-4.41 9.83-9.83 9.83z"/><path d="M21.172 17.47h2.656v7.575h-2.656v-7.576zm1.328-3.663c-.978 0-1.621.615-1.621 1.412 0 .796.643 1.411 1.621 1.411s1.621-.615 1.621-1.453c0-.797-.643-1.37-1.621-1.37z"/></g><defs><clipPath id="clip0"><path fill="#fff" d="M0 0h45v45H0z"/></clipPath></defs></svg>