<svg width="16" height="16" fill="none" xmlns="http://www.w3.org/2000/svg"><path d="M14.286 0H1.714C.768 0 0 .768 0 1.714v9.143c0 .947.768 1.714 1.714 1.714h2.029l-.311 2.795a.571.571 0 00.95.487l3.647-3.282h6.257c.947 0 1.714-.767 1.714-1.714V1.714C16 .768 15.232 0 14.286 0zm.571 10.857a.571.571 0 01-.571.572H7.81a.572.572 0 00-.383.146L4.734 14l.215-1.937a.571.571 0 00-.568-.634H1.714a.571.571 0 01-.571-.572V1.714c0-.315.256-.571.571-.571h12.572c.315 0 .571.256.571.571v9.143z" fill="#949494"/></svg>