<svg width="13" height="15" fill="none" xmlns="http://www.w3.org/2000/svg"><path fill-rule="evenodd" clip-rule="evenodd" d="M12.1 13.192a.224.224 0 01.003.373A7.5 7.5 0 117.694.002L7.69 0a.224.224 0 01.126.41 7.049 7.049 0 004.156 12.747h.03a.223.223 0 01.098.035zM9.666 8.75a.223.223 0 01.118.362l-.403.473.047.62a.226.226 0 01-.02.108.224.224 0 01-.295.112l-.564-.232-.577.237a.224.224 0 01-.315-.224l.047-.621-.403-.473a.223.223 0 01.128-.365l.595-.145.328-.526a.224.224 0 01.383 0l.324.526.605.145.002.003zm1.065-5.662a.224.224 0 00-.093-.047l.003.007-1.033-.252-.558-.902a.224.224 0 00-.383 0l-.56.905-1.023.251a.224.224 0 00-.131.353l.688.811-.08 1.062a.224.224 0 00.315.224l.985-.403.972.398a.224.224 0 00.315-.219l-.08-1.062.688-.811a.224.224 0 00-.026-.315zm1.906 3.575a.223.223 0 01.118.362l-.315.367.037.473a.226.226 0 01-.02.107.224.224 0 01-.296.112l-.431-.177-.444.183a.224.224 0 01-.316-.224l.037-.472-.315-.367a.224.224 0 01.13-.36l.456-.113.247-.414a.224.224 0 01.383 0l.25.406.473.114.006.003z" fill="#FF3359"/></svg>