<svg width="50" height="50" fill="none" xmlns="http://www.w3.org/2000/svg"><path d="M29.883 9.11l-5.446 1.303h-2.61a4.644 4.644 0 00-4.64 4.638 4.646 4.646 0 003.174 4.4v4.34h2.93V19.69h1.168l5.424 1.127v1.208h2.93V8.078h-2.93V9.11zm-8.057 4.232h1.319v3.418h-1.319a1.711 1.711 0 01-1.709-1.709c0-.942.767-1.709 1.71-1.709zm4.248 3.691v-4l3.809-.91v5.702l-3.809-.791z" fill="#fff"/><path d="M45.966 41.7a4.62 4.62 0 00.86-2.686 4.646 4.646 0 00-3.174-4.4v-5.03l-6.158-3.77a15.857 15.857 0 003.44-9.88C40.935 7.149 33.787 0 25 0 16.213 0 9.065 7.148 9.065 15.935a15.86 15.86 0 003.441 9.879l-6.158 3.77v5.03a4.646 4.646 0 00-3.174 4.4c0 1 .32 1.927.86 2.686A7.817 7.817 0 000 48.535V50h15.625v-1.465a7.818 7.818 0 00-4.034-6.835 4.62 4.62 0 00.86-2.686 4.646 4.646 0 00-3.174-4.4v-3.389l5.302-3.245a15.87 15.87 0 008.956 3.822v2.811a4.646 4.646 0 00-3.174 4.4c0 1.001.32 1.928.86 2.687a7.818 7.818 0 00-4.034 6.835V50h15.625v-1.465a7.818 7.818 0 00-4.034-6.835c.541-.759.86-1.686.86-2.686a4.646 4.646 0 00-3.173-4.4v-2.812a15.87 15.87 0 008.956-3.822l5.302 3.245v3.388a4.646 4.646 0 00-3.174 4.4c0 1.001.32 1.928.86 2.687a7.818 7.818 0 00-4.034 6.835V50H50v-1.465a7.818 7.818 0 00-4.034-6.835zM3.154 47.07a4.892 4.892 0 014.659-3.418 4.892 4.892 0 014.658 3.418H3.154zm4.659-6.347a1.711 1.711 0 01-1.71-1.71 1.71 1.71 0 111.709 1.71zm12.529 6.347A4.892 4.892 0 0125 43.652a4.892 4.892 0 014.658 3.418h-9.316zM25 40.723a1.711 1.711 0 01-1.709-1.71A1.71 1.71 0 0125 37.305a1.71 1.71 0 011.709 1.709c0 .942-.767 1.709-1.709 1.709zm0-11.783c-7.171 0-13.005-5.834-13.005-13.005C11.995 8.764 17.829 2.93 25 2.93c7.171 0 13.005 5.834 13.005 13.005 0 7.17-5.834 13.005-13.005 13.005zm15.478 10.074c0-.943.767-1.71 1.71-1.71.942 0 1.709.767 1.709 1.71 0 .942-.767 1.709-1.71 1.709a1.711 1.711 0 01-1.709-1.71zM37.53 47.07a4.892 4.892 0 014.658-3.418 4.892 4.892 0 014.659 3.418H37.53z" fill="#fff"/></svg>