<svg width="50" height="50" fill="none" xmlns="http://www.w3.org/2000/svg"><path d="M39.913 20.173v-5.26C39.913 6.69 33.224 0 25 0c-8.223 0-14.914 6.69-14.914 14.914v5.259H6.724V50h36.552V20.173h-3.363zm-26.897-5.26C13.016 8.306 18.392 2.93 25 2.93s11.984 5.376 11.984 11.984v5.259h-3.795v-5.26c0-4.515-3.674-8.189-8.189-8.189-4.515 0-8.19 3.674-8.19 8.19v5.259h-3.794v-5.26zm17.243 5.26H19.741v-5.26c0-2.9 2.359-5.259 5.259-5.259 2.9 0 5.26 2.36 5.26 5.26v5.259zM40.346 47.07H9.654V23.103h30.692V47.07z" fill="#fff"/><path d="M23.535 37.056v5.487h2.93v-5.487a4.835 4.835 0 003.362-4.6A4.833 4.833 0 0025 27.63a4.833 4.833 0 00-4.827 4.827 4.835 4.835 0 003.362 4.599zM25 30.56a1.9 1.9 0 011.897 1.897A1.9 1.9 0 0125 34.354a1.9 1.9 0 01-1.897-1.897A1.9 1.9 0 0125 30.559z" fill="#fff"/></svg>