<svg width="45" height="45" fill="none" xmlns="http://www.w3.org/2000/svg"><path d="M40.743 34.58a5.348 5.348 0 00.974-3.08v-2.302a5.387 5.387 0 00-4.842-5.352 5.743 5.743 0 00-3.05-2.517 5.348 5.348 0 00.973-3.08v-2.301a5.386 5.386 0 00-5.38-5.38 5.386 5.386 0 00-5.38 5.38v2.301c0 1.145.361 2.207.973 3.08a5.734 5.734 0 00-2.508 1.745 5.733 5.733 0 00-2.51-1.745 5.348 5.348 0 00.973-3.08v-2.301a5.386 5.386 0 00-5.38-5.38 5.386 5.386 0 00-5.379 5.38v2.301c0 1.145.36 2.207.973 3.08a5.743 5.743 0 00-3.05 2.516 5.387 5.387 0 00-4.846 5.353v2.301c0 1.146.36 2.207.973 3.08a5.722 5.722 0 00-3.83 5.393V45h44.147v-5.027a5.721 5.721 0 00-3.83-5.393zm-11.325 1.747a5.734 5.734 0 00-2.512-1.747 5.348 5.348 0 00.974-3.08v-2.302a5.385 5.385 0 00-2.98-4.813 3.059 3.059 0 011.995-.739h5.047c.762 0 1.458.28 1.995.74a5.385 5.385 0 00-2.98 4.812V31.5c0 1.146.361 2.208.974 3.08a5.735 5.735 0 00-2.513 1.748zm-13.836 0a5.734 5.734 0 00-2.513-1.747 5.348 5.348 0 00.974-3.08v-2.302a5.385 5.385 0 00-2.977-4.811 3.059 3.059 0 011.997-.74h5.048c.76 0 1.456.278 1.993.737a5.385 5.385 0 00-2.984 4.814V31.5c0 1.145.361 2.207.974 3.08a5.734 5.734 0 00-2.512 1.747zm9.66-4.827a2.746 2.746 0 01-2.742 2.742 2.746 2.746 0 01-2.743-2.742v-2.302a2.746 2.746 0 012.743-2.743 2.746 2.746 0 012.743 2.743V31.5zm13.838-2.302V31.5a2.746 2.746 0 01-2.743 2.742 2.746 2.746 0 01-2.743-2.742v-2.302a2.746 2.746 0 012.743-2.743 2.746 2.746 0 012.743 2.743zm-12.404-13.25a2.746 2.746 0 012.742-2.743 2.746 2.746 0 012.743 2.743v2.302a2.746 2.746 0 01-2.743 2.742 2.746 2.746 0 01-2.742-2.742v-2.302zm-13.832 0a2.746 2.746 0 012.743-2.743 2.746 2.746 0 012.743 2.743v2.302a2.746 2.746 0 01-2.743 2.742 2.746 2.746 0 01-2.743-2.742v-2.302zM5.92 29.198a2.746 2.746 0 012.743-2.743 2.746 2.746 0 012.743 2.743V31.5a2.746 2.746 0 01-2.743 2.742A2.746 2.746 0 015.92 31.5v-2.302zm8.343 13.166h-11.2v-2.391a3.08 3.08 0 013.076-3.076h5.048a3.08 3.08 0 013.076 3.076v2.39zm13.837 0H16.9v-2.391a3.08 3.08 0 013.076-3.076h5.048a3.08 3.08 0 013.076 3.076v2.39zm13.837 0h-11.2v-2.391a3.08 3.08 0 013.076-3.076h5.048a3.08 3.08 0 013.076 3.076v2.39zM11.148 3.233l1.811-1.917 4.747 4.486-1.811 1.917-4.747-4.486zM21.182 0h2.636v5.655h-2.636V0zm6.126 5.815l4.747-4.486 1.811 1.917-4.747 4.486-1.811-1.917z" fill="#fff"/></svg>