<svg width="50" height="50" fill="none" xmlns="http://www.w3.org/2000/svg"><path d="M42.678 7.322C37.956 2.6 31.678 0 25 0 18.322 0 12.044 2.6 7.322 7.322 2.6 12.044 0 18.322 0 25c0 6.678 2.6 12.956 7.322 17.678C12.044 47.4 18.322 50 25 50c6.678 0 12.956-2.6 17.678-7.322C47.4 37.956 50 31.678 50 25c0-6.678-2.6-12.956-7.322-17.678zm-2.072 33.284A21.925 21.925 0 0125 47.07a21.926 21.926 0 01-15.606-6.464A21.926 21.926 0 012.93 25 21.926 21.926 0 019.394 9.394 21.926 21.926 0 0125 2.93a21.926 21.926 0 0115.606 6.464A21.926 21.926 0 0147.07 25a21.925 21.925 0 01-6.464 15.606z" fill="#fff"/><path d="M39.65 16.627l-2.54 1.459a14.04 14.04 0 01-.878 15.32 13.914 13.914 0 01-3.494 3.339l-.909-2.082-4.152 6.09 7.29 1.097-1.042-2.385a16.797 16.797 0 004.664-4.32 16.97 16.97 0 001.061-18.518zM16.614 36.364a14.008 14.008 0 01-5.668-10.371l2.253.253L10 19.606l-4.594 5.763 2.59.292a16.934 16.934 0 006.879 13.061 16.816 16.816 0 0010.054 3.313h.077l-.013-2.93a13.918 13.918 0 01-8.378-2.74zm-2.959-19.617c4.065-5.508 11.493-7.219 17.494-4.252l-1.346 1.825 7.35.55-2.694-6.86-1.548 2.097a16.887 16.887 0 00-11.007-1.713 16.89 16.89 0 00-10.606 6.614 17.16 17.16 0 00-.973 1.471l2.524 1.488c.247-.418.518-.829.806-1.22z" fill="#fff"/></svg>