<svg width="15" height="15" fill="none" xmlns="http://www.w3.org/2000/svg"><path fill-rule="evenodd" clip-rule="evenodd" d="M7.5 2.639a.733.733 0 01-.733-.733V.733a.733.733 0 111.466 0v1.173a.733.733 0 01-.733.733zm0 1.104A3.761 3.761 0 003.743 7.5 3.761 3.761 0 007.5 11.258 3.761 3.761 0 0011.257 7.5 3.761 3.761 0 007.5 3.743zm-.733 9.35a.733.733 0 111.466 0v1.173a.733.733 0 11-1.466 0v-1.172zm4.17-9.03a.734.734 0 010-1.037l.83-.83a.734.734 0 011.036 1.037l-.83.83a.733.733 0 01-1.036 0zm-7.911 6.875a.732.732 0 111.037 1.036l-.83.83a.733.733 0 01-1.036-1.037l.829-.83zM12.36 7.5c0-.405.328-.733.733-.733h1.173a.733.733 0 110 1.466h-1.173a.733.733 0 01-.733-.733zM1.906 6.767a.733.733 0 010 1.466H.733a.733.733 0 110-1.466h1.173zm9.031 4.17a.734.734 0 011.037 0l.83.83a.733.733 0 11-1.037 1.036l-.83-.83a.733.733 0 010-1.035zm-6.874-7.91a.733.733 0 11-1.037 1.036l-.83-.829a.733.733 0 111.037-1.036l.83.829z" fill="#444"/></svg>