<svg width="291" height="185" fill="none" xmlns="http://www.w3.org/2000/svg"><rect x="44.686" y="91.663" width="91.636" height="21.379" rx="10.69" transform="rotate(-13.028 44.686 91.663)" fill="#fff"/><circle cx="47.193" cy="94.277" r="1.059" fill="#FF3359"/><path d="M57.713 99.653a3.118 3.118 0 01-.053-1.093 2.906 2.906 0 011.079-1.955 2.79 2.79 0 011.138-.532c.534-.124 1.018-.111 1.452.038.435.149.793.39 1.073.726l-.614.655a1.704 1.704 0 00-.4-.377 1.487 1.487 0 00-.447-.201 1.573 1.573 0 00-.464-.05 2.035 2.035 0 00-.44.05 1.703 1.703 0 00-.766.378 1.842 1.842 0 00-.473.622c-.107.24-.173.495-.197.768-.018.27.002.533.06.786.067.286.177.548.33.785.153.237.336.436.547.596.216.158.454.272.713.339.258.062.525.061.8-.002.143-.033.285-.084.426-.151a1.81 1.81 0 00.398-.275 1.736 1.736 0 00.513-.901l.87.26a1.9 1.9 0 01-.262.678 2.67 2.67 0 01-.48.554 2.973 2.973 0 01-.624.423 2.9 2.9 0 01-.681.253 2.49 2.49 0 01-1.192-.002 3.087 3.087 0 01-1.042-.481 3.33 3.33 0 01-.802-.832 3.191 3.191 0 01-.462-1.059zm8.539 1.243a2.339 2.339 0 01-.967.032 2.225 2.225 0 01-.806-.327 2.21 2.21 0 01-.61-.607 2.46 2.46 0 01-.396-1.709c.041-.3.134-.573.28-.821.151-.25.347-.466.59-.65a2.31 2.31 0 01.874-.393 2.251 2.251 0 011.764.296c.246.158.453.362.62.613a2.46 2.46 0 01.396 1.71 2.148 2.148 0 01-.29.814 2.264 2.264 0 01-1.455 1.042zm-1.804-1.932c.049.21.126.395.233.555.107.161.233.294.38.4.144.1.303.17.475.212a1.28 1.28 0 001.015-.235c.142-.114.255-.25.34-.41.086-.158.14-.334.166-.525a1.677 1.677 0 00-.035-.6 1.65 1.65 0 00-.612-.955 1.219 1.219 0 00-.483-.21 1.14 1.14 0 00-.53 0 1.18 1.18 0 00-.478.233 1.35 1.35 0 00-.332.407 1.636 1.636 0 00-.172.536c-.025.191-.014.389.033.592zm3.829-3.174l.892-.206.817 3.534 1.66-.384-.818-3.534.9-.208.818 3.534.751-.174.482 2.081-.801.185-.3-1.296-3.402.787-1-4.318zm6.479 1.694l1.512-3.542.694-.16.999 4.318-.892.206-.686-2.964-1.486 3.466-.735.17-.999-4.318.892-.206.701 3.03zm5.484.176c-.21.048-.413.06-.61.036a1.569 1.569 0 01-.529-.182 1.454 1.454 0 01-.405-.359 1.37 1.37 0 01-.231-.512 1.187 1.187 0 01.004-.583c.05-.186.14-.358.272-.516.137-.16.308-.297.513-.414.21-.118.45-.209.72-.271.204-.047.41-.075.616-.082a2.94 2.94 0 01.57.016l-.07-.297c-.073-.32-.221-.546-.444-.68-.223-.14-.506-.17-.847-.091a1.92 1.92 0 00-.655.29 3.413 3.413 0 00-.601.522l-.415-.513c.47-.502 1.004-.823 1.604-.962.595-.138 1.092-.093 1.493.133.4.226.666.623.797 1.19l.361 1.56c.045.193.147.274.308.242l.18.776a2.388 2.388 0 01-.403.137c-.177.041-.324.029-.444-.036a.59.59 0 01-.252-.299l-.087-.266a2.007 2.007 0 01-.583.752c-.25.197-.538.333-.862.408zm.092-.727c.22-.05.418-.137.593-.259a1.13 1.13 0 00.384-.445c.093-.126.126-.244.1-.354l-.131-.57a2.791 2.791 0 00-.528-.026c-.178.007-.35.03-.515.068-.325.075-.575.208-.751.4a.654.654 0 00-.178.623c.05.215.172.378.366.49.193.106.413.13.66.073zm2.738-.816c.163-.05.292-.117.388-.203.095-.091.162-.229.2-.412a2.84 2.84 0 00.032-.729 15.394 15.394 0 00-.109-1.184l-.154-1.304 2.85-.659.998 4.318-.9.209-.827-3.576-1.14.264.077.818c.051.573.074 1.05.07 1.427-.006.379-.053.691-.14.938-.085.24-.215.426-.393.56a1.934 1.934 0 01-.676.313l-.276-.78zm4.325-4.75l.892-.206.33 1.428.834-.193c.21-.048.415-.064.616-.046.207.016.396.07.568.164.177.087.328.211.452.374.13.16.223.36.278.597.056.242.06.464.015.666-.042.195-.12.37-.236.524a1.476 1.476 0 01-.44.39 2.123 2.123 0 01-.567.217l-1.743.404-.999-4.319zm2.514 3.194a.768.768 0 00.471-.292c.106-.146.132-.335.078-.566-.055-.237-.165-.4-.33-.489a.724.724 0 00-.54-.075l-.8.185.328 1.42.793-.183zm2.831-2.621l1.965-.455-.397-1.717.892-.207.999 4.319-.892.206-.424-1.833-1.965.455.424 1.833-.892.206-1-4.318.893-.207.397 1.718zm3.581-2.638l.892-.207.33 1.429.785-.181c.209-.049.414-.065.615-.047a1.406 1.406 0 011.013.54c.13.161.222.36.277.597.056.242.061.464.015.666-.042.195-.12.37-.235.524-.116.154-.26.283-.433.387a2.152 2.152 0 01-.575.22l-1.685.39-.999-4.318zm3.691-.854l.9-.208.999 4.318-.9.208-.999-4.318zm-1.235 4.061c.215-.05.372-.147.472-.292.105-.146.131-.335.078-.566-.055-.237-.165-.4-.331-.489a.725.725 0 00-.54-.075l-.743.172.33 1.42.734-.17zm6.22-.578a2.42 2.42 0 01-.957.039 2.3 2.3 0 01-.823-.323 2.334 2.334 0 01-.618-.605 2.416 2.416 0 01-.356-.823 2.421 2.421 0 01-.042-.895c.047-.3.143-.575.288-.823.15-.255.349-.472.598-.651.247-.185.541-.317.883-.396a2.25 2.25 0 011.764.296c.239.154.439.354.6.6a2.29 2.29 0 01.402 1.134l-3.46.8c.061.19.145.353.253.49.112.137.24.25.382.338a1.333 1.333 0 00.964.142 1.59 1.59 0 00.346-.123c.113-.06.213-.13.299-.208.085-.084.157-.176.215-.276a.996.996 0 00.118-.315l.828.044c-.073.359-.259.683-.558.972-.294.283-.669.477-1.126.583zm.718-2.872a1.436 1.436 0 00-.256-.47 1.232 1.232 0 00-.371-.324 1.268 1.268 0 00-.464-.162 1.354 1.354 0 00-.508.022 1.284 1.284 0 00-.803.551 1.217 1.217 0 00-.191.453 1.56 1.56 0 00-.016.534l2.609-.604zm3.475-.464a2.421 2.421 0 01-.042-.895 2.21 2.21 0 01.282-.814 2.333 2.333 0 011.482-1.039c.446-.103.851-.092 1.216.032.37.118.672.32.907.608l-.819.485a1.133 1.133 0 00-.519-.323 1.16 1.16 0 00-.622-.022 1.267 1.267 0 00-.487.226c-.138.108-.249.24-.334.4a1.424 1.424 0 00-.167.517c-.026.191-.014.394.036.609.049.209.127.397.235.563.112.16.241.292.388.398.151.104.313.176.485.218.176.034.352.031.528-.01a1.36 1.36 0 00.321-.117c.103-.059.192-.126.267-.201a1.05 1.05 0 00.195-.245.712.712 0 00.104-.268l.953.058a1.84 1.84 0 01-.533.967c-.289.281-.662.475-1.119.58a2.292 2.292 0 01-1.781-.293 2.43 2.43 0 01-.62-.612 2.416 2.416 0 01-.356-.822zm7.321.672c-.336.078-.654.09-.956.038a2.286 2.286 0 01-.823-.322 2.356 2.356 0 01-.619-.605 2.414 2.414 0 01-.355-.823 2.421 2.421 0 01-.042-.895c.046-.3.142-.575.288-.823.15-.255.349-.472.597-.652.247-.184.542-.316.883-.395a2.25 2.25 0 011.765.296c.238.154.438.354.6.6a2.31 2.31 0 01.401 1.134l-3.459.8c.061.19.145.353.252.49.113.137.24.25.383.338a1.328 1.328 0 00.963.142c.122-.028.237-.069.346-.123a1.55 1.55 0 00.3-.209 1.28 1.28 0 00.214-.275c.058-.1.098-.206.119-.315l.828.043c-.074.36-.26.684-.558.973-.294.283-.67.477-1.127.583zm.719-2.872a1.439 1.439 0 00-.257-.471 1.22 1.22 0 00-.371-.323 1.263 1.263 0 00-.463-.162 1.359 1.359 0 00-.509.021 1.36 1.36 0 00-.466.204 1.3 1.3 0 00-.337.348 1.233 1.233 0 00-.191.453c-.036.17-.041.348-.015.534l2.609-.604zm3.938 1.707l-.892.207-.818-3.534-1.403.325-.182-.785 3.699-.856.182.785-1.404.325.818 3.533zm2.718-1.986l1.512-3.542.693-.16 1 4.318-.892.206-.686-2.964-1.486 3.467-.735.17-.999-4.319.892-.206.701 3.03z" fill="#000"/><rect x="9.97" y="58.937" width="70.897" height="27.544" rx="13.772" transform="rotate(-43.163 9.97 58.937)" fill="#fff"/><circle cx="13.448" cy="60.019" r="1.704" transform="rotate(-30.135 13.448 60.019)" fill="#FF3359"/><path d="M24.672 57.067l4.913 1.596-1.26-5.023 1.14-1.07 1.509 6.533 2.209 2.356-1.039.974-2.226-2.374-6.387-1.923 1.14-1.07zm13.062.298c-.383.36-.793.616-1.23.77-.43.148-.86.209-1.292.183a3.319 3.319 0 01-1.248-.328 3.691 3.691 0 01-1.081-.799 3.59 3.59 0 01-.72-1.12 3.293 3.293 0 01-.255-1.276c.008-.438.1-.867.275-1.287.181-.426.46-.815.838-1.17a3.379 3.379 0 012.512-.944c.437.02.86.13 1.267.329a3.58 3.58 0 011.072.79c.313.333.556.71.728 1.13.167.412.246.837.238 1.275a3.376 3.376 0 01-1.104 2.447zm-3.794-1.147c.22.235.46.416.72.544.26.129.524.206.793.233.263.02.521-.008.776-.083.254-.088.484-.228.688-.419.204-.191.355-.408.452-.65a1.98 1.98 0 00.133-.788 2.31 2.31 0 00-.18-.806 2.517 2.517 0 00-.498-.754 2.48 2.48 0 00-1.513-.777 1.828 1.828 0 00-.785.092 1.71 1.71 0 00-.688.4 1.764 1.764 0 00-.444.66 2.025 2.025 0 00-.124.78c.01.27.07.544.18.824.112.267.275.515.49.744zm8.686-3.441c-.507.475-1.044.67-1.61.587-.573-.09-1.167-.463-1.782-1.119l-2.782-2.967 1.02-.956 2.591 2.763c.817.871 1.535 1.017 2.154.438.29-.273.481-.62.573-1.043.091-.423.049-.871-.128-1.344l-2.835-3.023 1.02-.957 3.417 3.644c.11.118.207.184.29.199.09.008.19-.033.302-.126l.817.872c-.087.117-.163.21-.225.28-.062.07-.124.134-.186.192a1.04 1.04 0 01-.612.296.712.712 0 01-.578-.208l-.47-.465a3.014 3.014 0 01-.088 1.598c-.178.504-.474.95-.888 1.339zm2.704-13.359l-2.188 2.052 5.313 5.666-1.048.983-5.313-5.666-2.198 2.061-.86-.918 5.433-5.096.861.918zm6.65 4.586c-.507.476-1.044.671-1.61.587-.573-.09-1.167-.463-1.781-1.118l-2.783-2.968 1.02-.956 2.591 2.763c.818.872 1.535 1.018 2.154.438.29-.273.481-.62.573-1.043.091-.423.049-.87-.128-1.344l-2.835-3.023 1.02-.957 3.418 3.645c.11.117.207.183.29.198.09.009.19-.033.3-.125l.818.871a3.476 3.476 0 01-.41.473c-.186.174-.39.272-.612.295a.711.711 0 01-.579-.208l-.47-.464a3.014 3.014 0 01-.088 1.598 3.35 3.35 0 01-.888 1.338zm6.773-6.351c-.371.348-.79.577-1.255.688a2.741 2.741 0 01-1.374-.053l.826.88-.9.844-6.347-6.769 1.02-.956 2.66 2.837a3.083 3.083 0 01.028-1.402c.122-.452.378-.86.767-1.226a2.519 2.519 0 011.081-.612 2.78 2.78 0 011.2-.079c.405.05.803.182 1.191.398.39.204.74.474 1.054.807.325.347.57.726.737 1.14.166.412.255.829.265 1.249.005.414-.074.819-.236 1.215a2.88 2.88 0 01-.717 1.039zm-1.087-.62a1.96 1.96 0 00.49-.703c.1-.267.144-.535.134-.806a2.202 2.202 0 00-.163-.805 2.407 2.407 0 00-.471-.726 2.404 2.404 0 00-.694-.517 2.09 2.09 0 00-.792-.25 1.914 1.914 0 00-.803.055c-.26.07-.495.203-.705.4-.315.296-.5.662-.557 1.098-.05.43-.003.85.14 1.263l1.2 1.28c.17.107.357.176.56.207a2.27 2.27 0 001.192-.178c.183-.09.34-.196.47-.318zm6.492-4.449a3.61 3.61 0 01-1.212.77 3.44 3.44 0 01-1.31.2 3.496 3.496 0 01-1.258-.318 3.622 3.622 0 01-1.08-.8 3.623 3.623 0 01-.729-1.13 3.46 3.46 0 01-.247-1.284c.003-.444.097-.875.285-1.295.181-.426.464-.819.847-1.178a3.377 3.377 0 012.513-.945c.425.02.835.129 1.23.328a3.457 3.457 0 011.375 1.168l-3.886 3.644c.222.199.454.347.697.445.248.092.499.142.75.15.252-.004.494-.05.724-.139.237-.094.448-.229.634-.402.136-.128.254-.268.355-.42.101-.165.179-.33.232-.497a1.93 1.93 0 00.07-.52c0-.173-.028-.339-.083-.497l1.107-.567c.175.522.178 1.082.009 1.682-.169.589-.51 1.123-1.023 1.605zm-1.23-4.267a2.153 2.153 0 00-.688-.418 1.836 1.836 0 00-.724-.14 1.899 1.899 0 00-.724.139 2.03 2.03 0 00-.643.41 1.934 1.934 0 00-.627 1.32c-.02.24.012.484.094.732.082.249.209.484.382.705l2.93-2.748z" fill="#000"/><rect x="182.761" y="93.355" width="108.71" height="21.379" rx="10.69" transform="rotate(6.694 182.761 93.355)" fill="#fff"/><circle cx="184.911" cy="95.866" r="1.059" fill="#FF3359"/><path d="M193.723 105.018l.623.073 2.191-2.311 1.078.126-2.477 2.636 1.969 3.363-1.077-.126-1.691-2.827-.716-.084-.304 2.593-.951-.112.701-5.976.952.111-.298 2.534zm5.674 4.241a2.325 2.325 0 01-.921-.296 2.21 2.21 0 01-.649-.579 2.232 2.232 0 01-.37-.777 2.472 2.472 0 01.205-1.743c.139-.268.319-.494.54-.679.227-.184.484-.321.774-.412.295-.091.614-.116.956-.076a2.243 2.243 0 011.561.875c.178.231.304.493.377.786a2.468 2.468 0 01-.204 1.743 2.157 2.157 0 01-.548.669 2.254 2.254 0 01-1.721.489zm-1.047-2.427c-.025.214-.014.414.032.602.046.187.12.355.222.503.103.143.228.263.376.36a1.28 1.28 0 001.036.122c.172-.06.324-.15.458-.271.134-.12.245-.267.333-.438a1.67 1.67 0 00.17-.578 1.618 1.618 0 00-.033-.592 1.503 1.503 0 00-.221-.513 1.226 1.226 0 00-.384-.361 1.146 1.146 0 00-.5-.178 1.168 1.168 0 00-.527.058 1.33 1.33 0 00-.45.271c-.134.121-.248.27-.343.447a1.67 1.67 0 00-.169.568zm5.379.162l2.003.236.206-1.751.909.106-.517 4.403-.909-.107.219-1.869-2.003-.235-.219 1.869-.909-.107.516-4.402.909.107-.205 1.75zm5.672 3.354l-.909-.107.423-3.602-1.431-.168.094-.8 3.771.443-.094.799-1.431-.168-.423 3.603zm3.921.545a2.399 2.399 0 01-.914-.286 2.298 2.298 0 01-.666-.581 2.341 2.341 0 01-.378-.779 2.427 2.427 0 01-.057-.894c.036-.309.124-.594.263-.856.145-.268.328-.494.549-.678.227-.19.487-.327.782-.412.295-.091.616-.115.964-.075.343.041.644.138.905.294a2.2 2.2 0 01.657.581c.172.225.293.481.362.768a2.301 2.301 0 01-.005 1.202l-3.527-.414c-.006.199.018.381.073.546.06.167.142.316.246.447.11.127.238.23.382.31.15.08.309.13.477.15.124.014.246.014.367 0 .127-.019.245-.051.353-.095.108-.05.206-.112.295-.187.088-.075.161-.161.217-.256l.765.32c-.19.313-.475.556-.853.727-.373.167-.792.223-1.257.168zm1.645-2.46a1.434 1.434 0 00-.083-.53 1.213 1.213 0 00-.24-.43 1.252 1.252 0 00-.381-.309 1.373 1.373 0 00-.994-.117 1.304 1.304 0 00-.434.214 1.222 1.222 0 00-.333.362 1.57 1.57 0 00-.195.498l2.66.312zm4.569-1.358l1.01.118-1.977 1.936 1.586 2.481-1.035-.121-1.226-1.987-.412-.049-.214 1.818-.909-.106.517-4.403.909.107-.215 1.835.345.041 1.621-1.67zm.979 2.342c.037-.309.124-.594.263-.857a2.21 2.21 0 01.54-.67c.226-.184.486-.319.781-.404.295-.09.616-.115.964-.074.455.053.833.2 1.135.44.308.235.524.528.648.878l-.935.181a1.132 1.132 0 00-.379-.48 1.156 1.156 0 00-.578-.23 1.263 1.263 0 00-.535.048 1.248 1.248 0 00-.449.263 1.425 1.425 0 00-.332.431 1.672 1.672 0 00-.171.585c-.025.214-.015.417.03.61.052.188.129.356.231.505.108.149.236.272.384.369.154.092.321.149.5.17a1.4 1.4 0 00.342-.003c.116-.02.222-.053.319-.099.102-.045.191-.1.267-.165a.704.704 0 00.187-.217l.878.376a1.836 1.836 0 01-.829.731c-.366.167-.782.224-1.248.169a2.302 2.302 0 01-1.578-.876 2.437 2.437 0 01-.377-.787 2.408 2.408 0 01-.058-.894zm6.674 3.019l-.909-.107.423-3.603-1.431-.168.094-.799 3.771.442-.094.8-1.431-.168-.423 3.603zm3.386-2.291l2.004.235.205-1.75.909.106-.517 4.402-.909-.106.22-1.869-2.004-.235-.219 1.869-.909-.107.517-4.402.909.106-.206 1.751zm4.888 3.347a1.756 1.756 0 01-.586-.171 1.567 1.567 0 01-.436-.35 1.44 1.44 0 01-.26-.474 1.358 1.358 0 01-.046-.56c.025-.208.092-.391.201-.548a1.36 1.36 0 01.43-.394c.183-.103.391-.176.623-.217.238-.04.495-.044.77-.012.207.025.41.068.607.131.198.058.375.127.53.208l.036-.303c.038-.326-.025-.589-.189-.791-.163-.206-.419-.33-.767-.371a1.906 1.906 0 00-.714.053 3.32 3.32 0 00-.742.288l-.218-.623c.612-.315 1.224-.437 1.835-.365.606.071 1.06.281 1.36.629.3.348.417.811.349 1.389l-.187 1.591c-.023.197.047.307.209.332l-.093.791a2.584 2.584 0 01-.426-.007c-.179-.021-.314-.083-.405-.184a.59.59 0 01-.136-.366l.007-.281a2.01 2.01 0 01-.802.512 2.163 2.163 0 01-.95.093zm.333-.652c.224.026.439.012.645-.044.212-.06.382-.157.512-.29.129-.087.201-.186.214-.299l.068-.58a2.776 2.776 0 00-.488-.203 2.737 2.737 0 00-.508-.111c-.331-.038-.611.003-.842.123a.653.653 0 00-.377.528.737.737 0 00.178.584.907.907 0 00.598.292zm4.197-.617a1.364 1.364 0 01-.561-.526c-.133-.226-.179-.508-.14-.844.026-.219.088-.411.187-.576.1-.17.224-.309.373-.417a1.36 1.36 0 01.515-.238c.199-.051.408-.063.627-.037l1.818.213-.517 4.411-.918-.108.181-1.54-.716-.084-1.123 1.429-1.019-.119 1.293-1.564zm1.653-.412l.159-1.355-.817-.096a.745.745 0 00-.492.122c-.159.101-.252.263-.279.488-.025.213.02.386.135.519a.723.723 0 00.452.224l.842.098zm6.359 3.153a1.73 1.73 0 01-.904-.362 1.9 1.9 0 01-.563-.732l-.307 2.618-.926-.109.727-6.195.817.096-.093.791c.199-.244.44-.429.722-.555.288-.125.6-.168.937-.129.303.036.573.13.811.283.238.153.438.344.598.574.161.229.276.487.345.774.074.288.094.583.058.886-.038.32-.121.614-.249.884a2.31 2.31 0 01-.489.676c-.197.182-.424.32-.68.415-.25.09-.517.119-.804.085zm-.21-.827c.197.023.378.002.545-.064.173-.065.324-.161.452-.288.135-.126.243-.276.326-.448.083-.172.135-.354.158-.545a1.527 1.527 0 00-.042-.585 1.474 1.474 0 00-.231-.505 1.297 1.297 0 00-.925-.552 1.129 1.129 0 00-.379.024 1.46 1.46 0 00-.71.385.89.89 0 00-.217.316l-.135 1.154a1.746 1.746 0 00.433.742c.103.097.215.178.339.244.123.066.252.107.386.122zm4.99 1.388a2.417 2.417 0 01-.913-.286 2.316 2.316 0 01-.666-.582 2.336 2.336 0 01-.378-.778 2.43 2.43 0 01-.057-.894 2.313 2.313 0 01.812-1.535c.227-.189.487-.327.782-.411a2.32 2.32 0 01.964-.075c.343.04.644.138.904.294.267.156.486.35.658.58.172.225.293.481.362.768a2.304 2.304 0 01-.005 1.203l-3.527-.414c-.006.198.018.38.073.546.06.166.142.315.246.447.11.127.238.23.382.309.15.081.309.131.477.15.124.015.246.015.367.001.127-.02.245-.051.352-.095.109-.05.207-.113.296-.188a.995.995 0 00.217-.256l.765.32c-.191.314-.475.556-.854.728-.372.167-.791.223-1.257.168zm1.646-2.461a1.438 1.438 0 00-.083-.53 1.208 1.208 0 00-.24-.429 1.333 1.333 0 00-.867-.46 1.285 1.285 0 00-.942.248 1.198 1.198 0 00-.333.362 1.564 1.564 0 00-.195.497l2.66.312zm4.569-1.358l1.01.119-1.977 1.935 1.586 2.482-1.035-.122-1.226-1.987-.412-.048-.214 1.818-.909-.107.517-4.402.909.107-.215 1.835.345.04 1.621-1.67zm.757 3.767c.17.008.314-.012.434-.06.12-.054.229-.161.327-.32.099-.159.191-.384.276-.676.091-.291.19-.674.297-1.151l.295-1.28 2.904.341-.516 4.402-.918-.107.428-3.645-1.162-.136-.204.795a14.56 14.56 0 01-.416 1.368c-.133.354-.282.632-.448.834-.16.198-.346.33-.559.396a1.933 1.933 0 01-.741.066l.003-.827zm6.301 1.61a1.75 1.75 0 01-.586-.171 1.572 1.572 0 01-.437-.35 1.472 1.472 0 01-.26-.475 1.37 1.37 0 01-.045-.559c.024-.208.091-.391.201-.549.109-.157.253-.289.43-.393.183-.104.39-.176.623-.217.238-.04.494-.044.769-.012.208.024.41.068.608.131.198.057.374.127.53.207l.036-.303c.038-.325-.025-.589-.189-.79-.164-.207-.419-.331-.767-.371a1.912 1.912 0 00-.715.052 3.415 3.415 0 00-.742.289l-.217-.623c.612-.315 1.223-.437 1.835-.365.606.071 1.059.281 1.36.629.3.348.416.811.349 1.389l-.187 1.591c-.023.196.046.307.208.332l-.092.791a2.584 2.584 0 01-.24.006 1.915 1.915 0 01-.186-.014c-.18-.021-.315-.082-.405-.184a.59.59 0 01-.137-.365l.008-.281a2.004 2.004 0 01-.803.511 2.144 2.144 0 01-.949.094zm.332-.652c.225.026.44.011.645-.044.212-.061.383-.157.512-.29.13-.087.201-.187.215-.299l.068-.581a2.83 2.83 0 00-.489-.202 2.727 2.727 0 00-.507-.111c-.331-.039-.612.002-.842.123a.656.656 0 00-.378.528.738.738 0 00.179.584.907.907 0 00.597.292zm5.838-.561l1.708-2.411.934.11-.516 4.402-.892-.105.338-2.887-1.461 2.056-.48-.056-.954-2.34-.339 2.888-.892-.105.516-4.402.943.11 1.095 2.74zm4.417 2.455a1.756 1.756 0 01-.586-.171 1.568 1.568 0 01-.437-.35 1.457 1.457 0 01-.26-.474 1.376 1.376 0 01-.045-.56 1.2 1.2 0 01.201-.548c.11-.158.253-.289.43-.393.183-.104.391-.176.623-.217.238-.041.494-.045.769-.012.208.024.411.068.608.131.198.057.375.126.53.207l.036-.303c.038-.326-.025-.589-.189-.79-.163-.207-.419-.331-.767-.372a1.906 1.906 0 00-.714.053 3.447 3.447 0 00-.743.288l-.217-.623c.612-.315 1.224-.436 1.835-.365.606.072 1.059.281 1.36.629.3.349.417.812.349 1.39l-.187 1.59c-.023.197.047.307.209.332l-.093.791a2.035 2.035 0 01-.426-.007c-.18-.021-.315-.082-.405-.184a.59.59 0 01-.136-.366l.007-.281a2.01 2.01 0 01-.802.512 2.163 2.163 0 01-.95.093zm.333-.652c.224.027.439.012.645-.044.212-.06.382-.157.512-.289.129-.088.201-.187.214-.299l.068-.581a2.854 2.854 0 00-.996-.313c-.331-.039-.612.002-.842.123a.654.654 0 00-.378.527.736.736 0 00.179.584.903.903 0 00.598.292z" fill="#000"/><rect x="151.864" y="158.983" width="49.278" height="27.176" rx="13.588" transform="rotate(-24.484 151.864 158.983)" fill="#fff"/><circle cx="154.866" cy="160.789" r="1.625" fill="#FF3359"/><path d="M172.221 160.811a2.24 2.24 0 00-.57-.141 4.09 4.09 0 00-.809-.051c-.29.004-.599.04-.929.109-.32.064-.634.166-.942.307-.685.311-1.134.667-1.348 1.067-.204.396-.205.815-.003 1.259.114.25.257.436.428.556.176.106.399.173.668.202.265.019.579.004.941-.044.357-.058.772-.131 1.245-.218a13.56 13.56 0 011.594-.22 4.416 4.416 0 011.327.077c.39.09.737.264 1.04.522.309.243.569.596.78 1.059.237.521.34 1.015.308 1.483a2.746 2.746 0 01-.388 1.295 4.045 4.045 0 01-.949 1.06 6.99 6.99 0 01-1.388.824 8.212 8.212 0 01-2.429.687 7.28 7.28 0 01-2.441-.145l.106-1.725c.182.069.424.127.726.176a6.55 6.55 0 001.022.059c.375-.02.768-.065 1.178-.135.406-.08.806-.21 1.202-.39.636-.29 1.077-.625 1.323-1.005.246-.38.271-.786.073-1.22a1.125 1.125 0 00-.499-.559 1.691 1.691 0 00-.753-.198 4.974 4.974 0 00-1.047.04c-.396.052-.841.121-1.337.208-.573.097-1.085.162-1.536.193a3.85 3.85 0 01-1.191-.122 2.453 2.453 0 01-.914-.474c-.257-.232-.478-.551-.662-.955-.228-.502-.334-.989-.317-1.463.013-.483.124-.929.333-1.339.215-.423.518-.806.91-1.147a5.637 5.637 0 011.382-.874 5.974 5.974 0 012.075-.544 6.992 6.992 0 011.923.12l-.132 1.666zm12.734 1.954l.652 1.432-7.043 3.207-4.675-10.268 6.912-3.148.652 1.432-5.293 2.41 1.331 2.922 4.584-2.088.612 1.345-4.584 2.088 1.429 3.138 5.423-2.47zm6.41-1.103a5.071 5.071 0 01-2.207.482 5.697 5.697 0 01-2.081-.467 6.024 6.024 0 01-1.776-1.217 6.03 6.03 0 01-1.223-1.765 5.768 5.768 0 01-.52-2.138 6.085 6.085 0 01.269-2.131 5.44 5.44 0 011.042-1.853 4.999 4.999 0 011.784-1.337c.732-.333 1.468-.482 2.206-.446a5.327 5.327 0 012.088.482 5.774 5.774 0 011.761 1.223 5.762 5.762 0 011.744 3.868 5.67 5.67 0 01-.269 2.13 5.75 5.75 0 01-1.056 1.861 5.008 5.008 0 01-1.762 1.308zm-5.639-3.718c.22.482.51.915.87 1.298.361.383.76.684 1.198.904.447.215.922.337 1.423.364.497.018.996-.087 1.498-.315.52-.237.93-.552 1.229-.944.304-.406.514-.851.631-1.335.118-.484.147-.981.09-1.49a4.76 4.76 0 00-.402-1.458 4.66 4.66 0 00-.87-1.298 3.928 3.928 0 00-1.206-.883 3.368 3.368 0 00-1.402-.357 3.042 3.042 0 00-1.475.288c-.521.237-.933.559-1.237.965a3.558 3.558 0 00-.645 1.306 4.299 4.299 0 00-.104 1.497c.057.509.192.995.402 1.458z" fill="#000"/><rect x="166.155" y="15.354" width="56.196" height="21.993" rx="10.996" transform="rotate(15.273 166.155 15.354)" fill="#fff"/><circle cx="168.34" cy="17.902" r="1.231" fill="#FF3359"/><path d="M182.044 28.074l-2.412-.658-1.705 6.244-1.155-.315 1.705-6.244-2.422-.662.276-1.012 5.989 1.636-.276 1.011zm-.6 6.656a2.192 2.192 0 01-.693-.32 1.963 1.963 0 01-.474-.515 1.803 1.803 0 01-.233-.634 1.71 1.71 0 01.048-.7c.069-.253.186-.466.351-.64a1.68 1.68 0 01.605-.407 2.41 2.41 0 01.81-.152c.302-.005.619.038.953.129.252.068.495.16.727.275.234.108.439.226.617.355l.1-.368c.108-.395.079-.732-.086-1.012-.163-.286-.456-.487-.879-.602a2.399 2.399 0 00-.893-.068c-.3.027-.624.1-.971.218l-.152-.81c.815-.276 1.593-.312 2.336-.11.736.202 1.257.545 1.563 1.032.307.486.364 1.08.173 1.782l-.528 1.931c-.065.239.001.388.196.449l-.262.96a2.933 2.933 0 01-.525-.088c-.218-.06-.373-.16-.466-.303a.74.74 0 01-.101-.477l.062-.346c-.324.248-.687.41-1.087.483a2.703 2.703 0 01-1.191-.062zm.532-.744c.273.074.541.097.806.066a1.41 1.41 0 00.686-.263c.177-.083.284-.193.321-.33l.193-.704a3.526 3.526 0 00-.566-.342 3.383 3.383 0 00-.607-.231c-.402-.11-.756-.111-1.064-.005-.298.101-.487.295-.565.581a.922.922 0 00.112.756c.15.23.378.388.684.472zm6.881 2.768a2.178 2.178 0 01-1.051-.616 2.38 2.38 0 01-.559-1.01l-.867 3.18-1.125-.308 2.054-7.521.992.27-.263.96c.292-.264.624-.447.996-.55a2.22 2.22 0 011.182.015c.368.1.685.267.951.5.265.234.476.508.632.821.156.314.25.654.281 1.021.039.37.008.738-.093 1.106a3.492 3.492 0 01-.472 1.046c-.207.302-.451.55-.731.745a2.564 2.564 0 01-.918.386 2.17 2.17 0 01-1.009-.045zm-.105-1.06c.238.064.467.072.685.022.226-.048.43-.14.613-.272.189-.132.351-.296.486-.494.134-.197.233-.412.296-.643a1.9 1.9 0 00.057-.732 1.806 1.806 0 00-.191-.667 1.615 1.615 0 00-1.04-.855 1.422 1.422 0 00-.472-.04 1.849 1.849 0 00-.501.104 1.743 1.743 0 00-.45.24 1.112 1.112 0 00-.326.35l-.383 1.4c.024.182.071.36.141.532.07.173.155.328.257.466.108.14.232.261.372.365.14.104.292.179.456.223zm8.247-1.614l-2.392-.653-1.216 4.456-1.104-.302 1.459-5.345 3.496.955-.243.889zm1.724 5.368a3.001 3.001 0 01-1.076-.524 2.854 2.854 0 01-.714-.843 2.926 2.926 0 01-.323-1.033 3.033 3.033 0 01.096-1.115c.103-.375.264-.712.485-1.01.229-.304.497-.549.805-.736a2.656 2.656 0 011.043-.363 2.914 2.914 0 011.206.088 2.813 2.813 0 011.767 1.372c.172.31.273.65.304 1.017a2.875 2.875 0 01-.229 1.485l-4.282-1.17a1.977 1.977 0 00-.013.69c.044.216.117.416.221.598.113.177.251.328.414.453.171.127.358.219.562.275.15.04.301.064.454.069.161 0 .312-.018.453-.052.143-.042.277-.1.4-.177.123-.076.229-.168.317-.276l.885.538c-.294.352-.69.599-1.19.74-.492.137-1.02.129-1.585-.026zm2.492-2.734a1.8 1.8 0 00-.003-.671 1.551 1.551 0 00-.216-.575 1.579 1.579 0 00-.415-.454 1.691 1.691 0 00-.572-.277 1.695 1.695 0 00-.634-.052 1.622 1.622 0 00-.577.183c-.178.09-.338.218-.478.385-.141.167-.252.36-.334.579l3.229.882zm3.322 4.212l-1.103-.301 1.194-4.374-1.737-.475.265-.97 4.578 1.25-.265.97-1.737-.474-1.195 4.374z" fill="#000"/></svg>