<svg width="556" height="371" fill="none" xmlns="http://www.w3.org/2000/svg"><rect x="91.267" y="197.065" width="173" height="40.362" rx="15" transform="rotate(-13.028 91.267 197.065)" fill="#fff"/><circle cx="96" cy="202" r="2" fill="#FF3359"/><path d="M115.86 212.15a5.9 5.9 0 01-.099-2.063c.085-.72.296-1.393.633-2.019a5.482 5.482 0 011.404-1.671c.59-.476 1.306-.812 2.148-1.006 1.008-.234 1.922-.21 2.743.071.82.281 1.495.738 2.025 1.371l-1.159 1.237a3.227 3.227 0 00-.756-.712 2.806 2.806 0 00-.843-.379 2.965 2.965 0 00-.876-.093 3.745 3.745 0 00-.832.094c-.582.134-1.064.372-1.445.712a3.484 3.484 0 00-.894 1.175 4.51 4.51 0 00-.371 1.449 5.017 5.017 0 00.114 1.485c.125.54.332 1.034.622 1.482.29.447.634.822 1.032 1.124.409.3.858.513 1.347.641.487.117.99.116 1.51-.005a3.91 3.91 0 00.805-.284c.274-.14.524-.313.75-.519.234-.218.434-.467.599-.746.176-.282.299-.6.37-.956l1.641.491c-.08.456-.245.883-.492 1.28-.25.386-.553.735-.907 1.047a5.71 5.71 0 01-1.179.798c-.42.218-.849.377-1.285.478a4.705 4.705 0 01-2.251-.004 5.843 5.843 0 01-1.967-.908 6.306 6.306 0 01-1.514-1.572 6.025 6.025 0 01-.873-1.998zm16.122 2.346a4.411 4.411 0 01-1.825.061 4.193 4.193 0 01-1.522-.617 4.16 4.16 0 01-1.152-1.146 4.62 4.62 0 01-.671-1.552 4.53 4.53 0 01-.076-1.674 4.126 4.126 0 01.528-1.551c.285-.471.656-.88 1.112-1.227a4.367 4.367 0 011.651-.743c.634-.147 1.232-.165 1.794-.054a4.159 4.159 0 012.709 1.771c.316.464.538.976.668 1.537.13.561.156 1.125.079 1.69a4.06 4.06 0 01-.547 1.539 4.152 4.152 0 01-1.112 1.226c-.457.347-1.002.593-1.636.74zm-3.405-3.646c.091.395.237.744.439 1.048.202.303.441.555.717.753.273.189.572.322.897.4.332.066.67.059 1.013-.02.343-.08.644-.221.904-.423.268-.215.482-.473.642-.773.161-.3.265-.63.313-.992a3.145 3.145 0 00-.066-1.134 3.113 3.113 0 00-.435-1.033 2.843 2.843 0 00-.72-.769 2.3 2.3 0 00-.913-.396 2.148 2.148 0 00-1.002.001 2.213 2.213 0 00-.9.439 2.548 2.548 0 00-.627.769c-.16.3-.268.637-.324 1.011-.048.361-.027.734.062 1.119zm7.228-5.992l1.684-.39 1.543 6.672 3.133-.725-1.543-6.671 1.699-.394 1.544 6.672 1.418-.328.909 3.928-1.512.35-.566-2.447-6.423 1.486-1.886-8.153zm12.232 3.197l2.854-6.688 1.31-.303 1.886 8.153-1.684.39-1.294-5.597-2.805 6.545-1.388.321-1.886-8.152 1.684-.39 1.323 5.721zm10.352.331a3.316 3.316 0 01-1.15.069 2.952 2.952 0 01-.999-.344 2.73 2.73 0 01-.764-.677 2.573 2.573 0 01-.437-.966 2.243 2.243 0 01.007-1.102c.094-.351.266-.675.514-.973a3.65 3.65 0 01.969-.783c.397-.223.85-.394 1.359-.511a6.132 6.132 0 011.164-.155 5.447 5.447 0 011.074.031l-.13-.561c-.139-.603-.419-1.031-.839-1.284-.422-.264-.955-.321-1.6-.172a3.631 3.631 0 00-1.236.549c-.379.252-.758.58-1.135.985l-.782-.968c.886-.95 1.895-1.556 3.028-1.818 1.122-.26 2.061-.176 2.817.252.756.427 1.258 1.176 1.505 2.246l.682 2.946c.084.364.278.516.582.457l.339 1.465a4.355 4.355 0 01-.761.258c-.333.077-.612.054-.838-.069a1.114 1.114 0 01-.475-.563l-.166-.504a3.776 3.776 0 01-1.1 1.421 4.082 4.082 0 01-1.628.771zm.176-1.371a3.194 3.194 0 001.118-.489c.338-.242.58-.523.725-.841.175-.237.239-.46.191-.668l-.249-1.076a5.255 5.255 0 00-.997-.048 5.117 5.117 0 00-.972.126c-.614.142-1.086.394-1.419.755-.324.349-.436.742-.335 1.178.094.406.324.714.69.925.364.2.78.246 1.248.138zm5.168-1.541c.307-.093.551-.22.733-.383.179-.173.305-.432.378-.777.074-.346.093-.804.059-1.377a27.822 27.822 0 00-.205-2.235l-.29-2.462 5.378-1.244 1.886 8.152-1.699.393-1.562-6.749-2.151.497.144 1.544c.097 1.083.141 1.982.131 2.696-.01.714-.098 1.303-.264 1.769-.158.452-.405.805-.741 1.058-.325.25-.75.447-1.275.591l-.522-1.473zm8.165-8.967l1.684-.39.624 2.697 1.574-.364a3.718 3.718 0 011.162-.089c.39.031.748.134 1.074.31a2.4 2.4 0 01.853.706c.245.305.42.68.523 1.127.106.458.116.877.029 1.258a2.503 2.503 0 01-.445.99 2.766 2.766 0 01-.832.734 3.994 3.994 0 01-1.07.412l-3.289.761-1.887-8.152zm4.746 6.029c.395-.091.691-.275.89-.551.199-.276.248-.632.147-1.068-.103-.447-.311-.755-.624-.923a1.368 1.368 0 00-1.018-.143l-1.512.35.62 2.681 1.497-.346zm5.345-4.948l3.71-.859-.75-3.242 1.683-.389 1.887 8.152-1.684.39-.8-3.461-3.71.859.8 3.46-1.683.39-1.887-8.153 1.684-.389.75 3.242zm6.761-4.98l1.683-.39.624 2.697 1.481-.343a3.72 3.72 0 011.162-.088c.391.03.748.133 1.074.31.323.166.602.403.837.709.246.305.42.681.524 1.127.106.458.115.877.028 1.258a2.516 2.516 0 01-.444.99c-.217.291-.49.535-.816.731-.33.186-.692.324-1.087.415l-3.18.736-1.886-8.152zm6.968-1.613l1.699-.393 1.886 8.153-1.699.393-1.886-8.153zm-2.332 7.667c.405-.093.702-.277.891-.551.199-.276.248-.632.147-1.068-.104-.447-.312-.755-.624-.923a1.366 1.366 0 00-1.019-.142l-1.403.324.621 2.681 1.387-.321zm11.743-1.091a4.537 4.537 0 01-1.806.073 4.318 4.318 0 01-1.554-.609 4.397 4.397 0 01-1.167-1.142 4.574 4.574 0 01-.672-1.553 4.583 4.583 0 01-.079-1.69 4.358 4.358 0 01.544-1.554 4.004 4.004 0 011.128-1.23c.466-.349 1.022-.598 1.666-.747.634-.147 1.232-.165 1.794-.054a4.142 4.142 0 011.538.613c.45.29.828.668 1.133 1.134a4.337 4.337 0 01.728 1.868c.013.106.023.197.03.272l-6.532 1.512c.116.356.275.664.477.924.213.257.454.47.722.637.277.155.569.258.876.307.317.047.632.034.944-.038.228-.053.446-.13.652-.233.214-.115.403-.246.566-.394a2.46 2.46 0 00.405-.52c.109-.19.184-.388.224-.594l1.563.082c-.139.678-.49 1.29-1.054 1.837-.555.533-1.264.9-2.126 1.099zm1.356-5.421a2.704 2.704 0 00-.485-.89 2.315 2.315 0 00-.699-.61 2.394 2.394 0 00-.876-.306 2.567 2.567 0 00-.959.041 2.576 2.576 0 00-.88.384c-.254.18-.466.398-.637.657a2.325 2.325 0 00-.36.855 2.905 2.905 0 00-.029 1.009l4.925-1.14zm6.56-.877a4.583 4.583 0 01-.079-1.69c.08-.555.257-1.067.532-1.535a4.118 4.118 0 011.131-1.215c.467-.349 1.022-.598 1.667-.747.842-.194 1.607-.175 2.296.06a3.54 3.54 0 011.711 1.148l-1.545.916a2.143 2.143 0 00-.979-.611 2.175 2.175 0 00-1.175-.04 2.39 2.39 0 00-.92.426c-.26.203-.47.454-.63.754a2.67 2.67 0 00-.316.976c-.048.361-.025.745.069 1.15.091.395.239.749.443 1.063.212.302.456.552.732.751.286.196.592.334.916.412.333.065.665.059.998-.018.208-.048.41-.122.606-.222a2.36 2.36 0 00.503-.379c.153-.145.276-.299.369-.463.104-.167.169-.335.195-.505l1.799.109c-.128.676-.464 1.284-1.006 1.826-.545.531-1.249.897-2.111 1.096a4.366 4.366 0 01-1.81.058 4.34 4.34 0 01-1.553-.61 4.601 4.601 0 01-1.171-1.158 4.541 4.541 0 01-.672-1.552zm13.822 1.269a4.556 4.556 0 01-1.806.073 4.338 4.338 0 01-1.554-.61 4.411 4.411 0 01-1.167-1.142 4.564 4.564 0 01-.671-1.553 4.54 4.54 0 01-.079-1.69 4.344 4.344 0 01.543-1.554 4.004 4.004 0 011.128-1.23c.467-.349 1.022-.598 1.667-.747a4.258 4.258 0 011.794-.054 4.154 4.154 0 011.537.613c.451.29.828.668 1.133 1.134a4.357 4.357 0 01.758 2.141l-6.531 1.511c.115.356.274.664.476.924.213.257.454.47.723.638a2.499 2.499 0 001.819.268c.229-.052.446-.13.652-.233.214-.115.403-.246.566-.393.161-.158.296-.331.405-.521.11-.19.184-.387.224-.594l1.563.082c-.139.678-.49 1.29-1.053 1.837-.556.533-1.265.9-2.127 1.1zm1.357-5.422a2.725 2.725 0 00-.485-.889 2.303 2.303 0 00-.7-.61 2.378 2.378 0 00-.876-.307 2.567 2.567 0 00-.959.041 2.567 2.567 0 00-.88.385 2.435 2.435 0 00-.636.656 2.31 2.31 0 00-.361.855 2.93 2.93 0 00-.029 1.009l4.926-1.14zm7.434 3.223l-1.684.39-1.543-6.672-2.65.613-.343-1.481 6.983-1.616.343 1.481-2.65.614 1.544 6.671zm5.132-3.749l2.854-6.688 1.309-.303 1.887 8.153-1.684.39-1.295-5.597-2.805 6.545-1.387.321-1.886-8.152 1.683-.39 1.324 5.721z" fill="#000"/><rect x=".339" y="91.56" width="133.846" height="52" rx="15" transform="rotate(-43.163 .34 91.56)" fill="#fff"/><circle cx="6.907" cy="93.602" r="3.217" transform="rotate(-30.135 6.907 93.602)" fill="#FF3359"/><path d="M28.095 88.029l9.276 3.014-2.378-9.483 2.153-2.02 2.847 12.334 4.17 4.447-1.96 1.838L38 93.678l-12.058-3.63 2.153-2.02zm24.661.562c-.724.679-1.498 1.163-2.322 1.454a6.28 6.28 0 01-2.44.346 6.267 6.267 0 01-2.356-.619 6.968 6.968 0 01-2.04-1.508 6.778 6.778 0 01-1.359-2.115 6.213 6.213 0 01-.483-2.41 6.568 6.568 0 01.52-2.428c.342-.804.87-1.54 1.582-2.208.712-.668 1.474-1.141 2.286-1.42a6.216 6.216 0 012.457-.363 6.027 6.027 0 012.391.62 6.778 6.778 0 012.024 1.49 6.968 6.968 0 011.375 2.133c.314.78.464 1.583.449 2.409a6.214 6.214 0 01-.52 2.428c-.33.793-.852 1.524-1.564 2.191zm-7.164-2.165c.416.443.87.786 1.36 1.028.49.242.989.389 1.497.439.497.038.985-.014 1.465-.157.48-.166.914-.429 1.299-.79.385-.361.67-.771.854-1.23.185-.48.27-.975.252-1.485a4.325 4.325 0 00-.342-1.522 4.75 4.75 0 00-.94-1.423 4.679 4.679 0 00-1.342-1.01 4.268 4.268 0 00-1.514-.457 3.455 3.455 0 00-1.482.173c-.48.143-.913.395-1.298.757-.374.35-.653.765-.838 1.246-.174.47-.252.96-.234 1.47.017.51.131 1.028.34 1.556.21.505.518.973.923 1.405zm16.4-6.496c-.957.897-1.971 1.267-3.041 1.108-1.082-.17-2.202-.874-3.362-2.111l-5.254-5.602 1.925-1.806 4.893 5.216c1.543 1.646 2.898 1.922 4.066.827.548-.514.909-1.17 1.081-1.969.173-.798.093-1.644-.24-2.537l-5.353-5.707 1.926-1.806 6.452 6.88c.208.221.39.346.548.374.17.016.359-.062.568-.237l1.543 1.646a8.34 8.34 0 01-.424.53 5.573 5.573 0 01-.351.362c-.35.328-.736.514-1.156.557-.431.031-.795-.1-1.091-.392l-.889-.877c.216 1.048.16 2.054-.164 3.017-.337.951-.896 1.794-1.677 2.527zm5.104-25.22l-4.131 3.874 10.031 10.697-1.978 1.855L60.987 60.44l-4.15 3.89-1.625-1.733 10.259-9.62 1.625 1.733zm12.555 8.658c-.957.898-1.97 1.267-3.04 1.108-1.082-.17-2.202-.874-3.363-2.111l-5.253-5.602 1.925-1.806 4.893 5.216c1.543 1.646 2.898 1.922 4.065.827.549-.514.91-1.17 1.082-1.969.173-.798.093-1.644-.24-2.537l-5.353-5.707 1.926-1.806 6.452 6.88c.208.221.39.346.548.374.17.017.359-.062.568-.237l1.543 1.646a8.383 8.383 0 01-.424.53 5.547 5.547 0 01-.352.362c-.35.328-.735.514-1.155.557-.431.031-.795-.1-1.091-.392l-.889-.877c.216 1.048.16 2.054-.164 3.017-.337.951-.896 1.794-1.678 2.527zm12.786-11.991c-.7.657-1.49 1.09-2.368 1.3a5.175 5.175 0 01-2.594-.1l1.56 1.662-1.699 1.593-11.984-12.78 1.925-1.806 5.024 5.357c-.186-.923-.169-1.805.051-2.647.231-.853.714-1.624 1.45-2.314a4.758 4.758 0 012.04-1.157 5.261 5.261 0 012.263-.148 6.111 6.111 0 012.251.752 7.488 7.488 0 011.989 1.524 6.91 6.91 0 011.391 2.15 6.71 6.71 0 01.502 2.359 5.819 5.819 0 01-.447 2.295 5.435 5.435 0 01-1.354 1.96zm-2.05-1.17c.42-.394.728-.836.925-1.328.186-.503.27-1.01.252-1.52a4.154 4.154 0 00-.307-1.521 4.542 4.542 0 00-.89-1.37 4.541 4.541 0 00-1.31-.976 3.944 3.944 0 00-1.496-.472 3.612 3.612 0 00-1.515.104 3.1 3.1 0 00-1.331.755 3.338 3.338 0 00-1.052 2.072 5.331 5.331 0 00.263 2.385l2.266 2.416c.322.203.674.333 1.057.39a4.285 4.285 0 002.252-.335c.345-.17.64-.37.885-.6zm12.255-8.4c-.712.667-1.474 1.152-2.288 1.454a6.491 6.491 0 01-2.474.38 6.604 6.604 0 01-2.375-.603 6.843 6.843 0 01-2.04-1.509 6.844 6.844 0 01-1.375-2.132 6.536 6.536 0 01-.465-2.426 6.016 6.016 0 01.537-2.445c.342-.804.876-1.545 1.6-2.224.711-.668 1.473-1.141 2.286-1.42a6.216 6.216 0 012.457-.364 5.715 5.715 0 012.323.618 6.526 6.526 0 012.351 1.876c.098.127.179.237.244.33l-7.335 6.88c.418.375.856.655 1.314.84.47.173.943.267 1.418.282a3.952 3.952 0 001.366-.261 3.775 3.775 0 001.196-.76c.257-.24.481-.505.671-.794.191-.31.337-.623.437-.936.09-.326.135-.653.134-.98a2.852 2.852 0 00-.157-.94l2.089-1.07c.331.984.336 2.042.017 3.175-.319 1.11-.962 2.12-1.931 3.029zm-2.322-8.055a4.073 4.073 0 00-1.3-.789 3.468 3.468 0 00-1.366-.264 3.59 3.59 0 00-1.367.261 3.838 3.838 0 00-1.214.776 3.87 3.87 0 00-.852 1.162 3.656 3.656 0 00-.331 1.33 3.47 3.47 0 00.176 1.381c.155.47.396.913.722 1.33l5.532-5.187z" fill="#000"/><rect x="351.941" y="200.26" width="205.234" height="40.362" rx="15" transform="rotate(6.694 351.941 200.26)" fill="#fff"/><circle cx="356" cy="205" r="2" fill="#FF3359"/><path d="M372.636 222.278l1.176.138 4.137-4.363 2.034.238-4.676 4.977 3.717 6.349-2.034-.239-3.192-5.336-1.35-.159-.575 4.895-1.796-.211 1.325-11.283 1.795.211-.561 4.783zm10.711 8.007c-.657-.077-1.237-.263-1.739-.558a4.195 4.195 0 01-1.225-1.094 4.192 4.192 0 01-.698-1.468 4.65 4.65 0 01-.108-1.688 4.536 4.536 0 01.494-1.601 4.145 4.145 0 011.021-1.282 4.372 4.372 0 011.461-.779 4.371 4.371 0 011.804-.143c.647.076 1.216.261 1.707.555.503.295.916.661 1.241 1.096.336.437.573.932.712 1.485.14.543.177 1.1.11 1.672a4.65 4.65 0 01-.496 1.618 4.045 4.045 0 01-1.035 1.264 4.142 4.142 0 01-1.46.779c-.547.172-1.143.22-1.789.144zm-1.976-4.581c-.047.402-.027.781.06 1.134.088.354.228.672.42.952.194.27.431.496.71.679.291.174.611.281.961.322.35.042.681.011.994-.092.324-.113.613-.283.865-.511.252-.228.462-.504.629-.828.167-.324.274-.688.321-1.09a3.128 3.128 0 00-.062-1.119 2.827 2.827 0 00-.418-.967 2.307 2.307 0 00-.726-.682 2.149 2.149 0 00-.943-.336 2.215 2.215 0 00-.995.109 2.54 2.54 0 00-.85.512 3.072 3.072 0 00-.646.843 3.116 3.116 0 00-.32 1.074zm10.155.305l3.782.444.388-3.305 1.716.201-.975 8.311-1.717-.201.414-3.528-3.782-.444-.414 3.528-1.716-.201.975-8.311 1.717.201-.388 3.305zm10.708 6.332l-1.716-.202.798-6.801-2.701-.317.177-1.51 7.119.836-.177 1.51-2.701-.317-.799 6.801zm7.402 1.03a4.54 4.54 0 01-1.725-.541 4.336 4.336 0 01-1.257-1.098 4.42 4.42 0 01-.713-1.469 4.536 4.536 0 01-.108-1.688 4.37 4.37 0 011.532-2.898 4.035 4.035 0 011.477-.777c.557-.171 1.164-.217 1.82-.14.647.075 1.216.26 1.707.554.503.296.916.661 1.241 1.096.326.425.554.909.684 1.45a4.36 4.36 0 01-.009 2.27l-6.658-.781c-.012.375.034.718.137 1.031.113.314.268.595.464.844.209.239.449.434.721.584.283.151.584.246.901.283.233.027.464.028.693.001.24-.037.462-.096.665-.18.205-.094.39-.212.557-.353.167-.142.304-.303.412-.484l1.443.605c-.359.591-.896 1.049-1.611 1.373-.703.315-1.494.421-2.373.318zm3.106-4.646a2.706 2.706 0 00-.156-1.001 2.305 2.305 0 00-.453-.81 2.388 2.388 0 00-.72-.584 2.537 2.537 0 00-.918-.285 2.544 2.544 0 00-.958.065 2.433 2.433 0 00-.82.403 2.308 2.308 0 00-.628.683 2.929 2.929 0 00-.368.94l5.021.589zm8.626-2.564l1.907.224-3.732 3.654 2.995 4.685-1.955-.23-2.315-3.751-.778-.091-.403 3.432-1.716-.201.975-8.311 1.716.201-.406 3.464.651.077 3.061-3.153zm1.849 4.422a4.584 4.584 0 01.496-1.618 4.17 4.17 0 011.019-1.265 4.122 4.122 0 011.474-.762c.557-.171 1.164-.218 1.821-.14.858.1 1.572.377 2.142.831.581.444.989.997 1.223 1.658l-1.764.34a2.133 2.133 0 00-.715-.905 2.179 2.179 0 00-1.093-.434 2.39 2.39 0 00-1.009.091 2.331 2.331 0 00-.848.496 2.7 2.7 0 00-.627.813 3.196 3.196 0 00-.323 1.105c-.047.403-.028.787.058 1.151.098.355.243.673.436.953.203.282.445.514.724.698.291.173.606.28.945.32.212.025.427.023.645-.005a2.38 2.38 0 00.602-.187c.192-.085.36-.189.503-.312.154-.121.272-.258.355-.409l1.656.71c-.349.593-.87 1.052-1.563 1.379-.693.316-1.478.423-2.358.319a4.31 4.31 0 01-2.979-1.654 4.595 4.595 0 01-.712-1.485 4.579 4.579 0 01-.108-1.688zm12.599 5.699l-1.716-.201.798-6.802-2.701-.317.177-1.509 7.119.835-.177 1.51-2.701-.317-.799 6.801zm6.393-4.324l3.782.444.388-3.306 1.716.202-.975 8.311-1.716-.202.414-3.527-3.782-.444-.414 3.527-1.717-.201.976-8.311 1.716.202-.388 3.305zm9.228 6.319a3.298 3.298 0 01-1.106-.324 2.931 2.931 0 01-.824-.66 2.731 2.731 0 01-.491-.896 2.584 2.584 0 01-.086-1.057c.046-.392.173-.737.379-1.035.207-.297.478-.545.812-.742a3.672 3.672 0 011.176-.41 5.12 5.12 0 011.453-.022c.392.046.774.128 1.147.247.374.108.707.239 1.001.391l.067-.572c.072-.614-.047-1.112-.356-1.492-.309-.39-.792-.624-1.448-.701a3.642 3.642 0 00-1.349.099c-.443.11-.91.291-1.401.545l-.41-1.176c1.155-.595 2.309-.824 3.464-.689 1.144.134 2 .53 2.567 1.187.567.658.787 1.532.659 2.623l-.353 3.003c-.043.371.088.58.394.627l-.175 1.493a4.11 4.11 0 01-.804-.013c-.339-.04-.594-.156-.765-.348a1.114 1.114 0 01-.257-.691l.014-.53a3.784 3.784 0 01-1.515.966c-.57.191-1.168.25-1.793.177zm.628-1.232c.424.05.83.023 1.218-.082.4-.114.722-.297.966-.547.245-.165.38-.353.405-.565l.128-1.097a5.371 5.371 0 00-.921-.382 5.2 5.2 0 00-.959-.209c-.625-.073-1.155.004-1.589.233-.423.218-.661.55-.713.995-.049.413.064.781.337 1.103.275.312.651.495 1.128.551zm7.924-1.164a2.574 2.574 0 01-1.059-.994c-.251-.427-.339-.958-.264-1.594.049-.413.166-.775.353-1.086.188-.322.423-.584.705-.787.283-.214.606-.364.971-.45a3.24 3.24 0 011.184-.071l3.432.403-.977 8.327-1.732-.203.341-2.908-1.35-.159-2.121 2.699-1.923-.225 2.44-2.952zm3.12-.778l.301-2.558-1.542-.181a1.402 1.402 0 00-.929.229c-.301.191-.477.498-.527.921-.047.403.038.73.256.981.229.241.513.382.852.422l1.589.186zm12.007 5.953c-.668-.079-1.237-.307-1.708-.684a3.59 3.59 0 01-1.062-1.381l-.58 4.942-1.748-.205 1.372-11.696 1.542.181-.176 1.493c.377-.46.831-.81 1.364-1.048a3.36 3.36 0 011.768-.243 3.554 3.554 0 011.532.534c.45.289.826.65 1.13 1.083.303.433.52.92.65 1.462.14.542.177 1.1.11 1.672a5.299 5.299 0 01-.47 1.669 4.341 4.341 0 01-.923 1.277 3.875 3.875 0 01-1.284.783 3.276 3.276 0 01-1.517.161zm-.397-1.561c.371.043.714.003 1.029-.121.326-.123.61-.304.853-.544.254-.239.459-.521.615-.847a3.2 3.2 0 00.298-1.028 2.86 2.86 0 00-.08-1.105 2.71 2.71 0 00-.436-.953 2.447 2.447 0 00-1.746-1.043 2.149 2.149 0 00-.714.045 2.797 2.797 0 00-.724.27c-.23.123-.436.276-.618.459a1.688 1.688 0 00-.408.596l-.256 2.178c.076.266.186.521.329.763.144.242.307.455.489.637.194.184.406.338.639.462.232.124.476.201.73.231zm9.421 2.62a4.545 4.545 0 01-1.725-.541 4.318 4.318 0 01-1.256-1.098 4.394 4.394 0 01-.714-1.469 4.579 4.579 0 01-.108-1.688 4.564 4.564 0 01.496-1.618 4.353 4.353 0 011.036-1.279 4.022 4.022 0 011.477-.778c.557-.171 1.164-.217 1.821-.14.646.076 1.215.26 1.707.554.502.296.916.661 1.24 1.097.326.424.554.908.684 1.449a4.339 4.339 0 01-.009 2.271l-6.658-.782c-.012.375.034.718.137 1.031.113.314.268.595.465.844.208.239.448.434.72.584.283.151.584.246.902.283.233.027.464.028.692.001.241-.036.463-.096.666-.18.204-.094.39-.212.557-.353.167-.142.304-.303.411-.484l1.443.605c-.359.591-.896 1.049-1.611 1.373-.703.315-1.494.421-2.373.318zm3.107-4.646a2.706 2.706 0 00-.157-1.001 2.32 2.32 0 00-.452-.81 2.392 2.392 0 00-.721-.584 2.557 2.557 0 00-.917-.285 2.43 2.43 0 00-1.779.468 2.321 2.321 0 00-.628.683 2.952 2.952 0 00-.368.94l5.022.589zm8.625-2.564l1.907.224-3.731 3.654 2.994 4.685-1.955-.23-2.314-3.751-.779-.091-.403 3.432-1.716-.201.975-8.311 1.717.201-.407 3.464.652.077 3.06-3.153zm1.43 7.111c.32.016.593-.021.818-.113.227-.102.433-.304.619-.604.186-.301.359-.726.52-1.276a28.68 28.68 0 00.562-2.174l.557-2.415 5.482.643-.975 8.311-1.732-.203.807-6.881-2.193-.257-.385 1.501c-.274 1.053-.536 1.913-.787 2.582-.25.669-.532 1.194-.845 1.576-.302.373-.653.622-1.054.746-.391.126-.858.168-1.4.126l.006-1.562zm11.895 3.039a3.297 3.297 0 01-1.106-.323 2.95 2.95 0 01-.825-.66 2.75 2.75 0 01-.491-.896 2.602 2.602 0 01-.085-1.057 2.24 2.24 0 01.379-1.035c.207-.298.478-.545.812-.742a3.655 3.655 0 011.176-.41 5.117 5.117 0 011.453-.023c.392.046.774.129 1.147.248.374.108.707.239 1.001.391l.067-.572c.072-.614-.047-1.112-.357-1.492-.308-.39-.791-.624-1.448-.701a3.637 3.637 0 00-1.348.099c-.443.109-.91.291-1.401.545l-.41-1.176c1.154-.595 2.309-.825 3.464-.689 1.144.134 2 .53 2.567 1.187.567.658.787 1.532.659 2.623l-.353 3.003c-.043.371.088.58.394.626l-.175 1.494a4.082 4.082 0 01-.804-.014c-.339-.039-.594-.155-.765-.347a1.114 1.114 0 01-.257-.691l.014-.53a3.784 3.784 0 01-1.515.966 4.072 4.072 0 01-1.793.176zm.628-1.231c.423.05.829.022 1.218-.082.4-.115.722-.297.966-.547.245-.165.38-.353.405-.565l.128-1.097a5.35 5.35 0 00-.922-.382 5.171 5.171 0 00-.958-.209c-.625-.073-1.155.004-1.59.232-.423.219-.66.551-.713.996-.048.413.065.781.338 1.103.275.312.651.495 1.128.551zm11.021-1.058l3.225-4.551 1.763.207-.975 8.311-1.684-.198.639-5.451-2.759 3.881-.906-.106-1.801-4.416-.64 5.45-1.684-.197.975-8.311 1.78.208 2.067 5.173zm8.339 4.635a3.29 3.29 0 01-1.106-.323 2.968 2.968 0 01-.825-.66 2.76 2.76 0 01-.491-.896 2.585 2.585 0 01-.085-1.057 2.24 2.24 0 01.379-1.035c.207-.298.478-.545.812-.742a3.631 3.631 0 011.176-.41 5.11 5.11 0 011.452-.023c.392.046.775.129 1.147.248.374.108.708.238 1.002.391l.067-.572c.072-.615-.047-1.112-.357-1.492-.308-.39-.791-.624-1.448-.701a3.623 3.623 0 00-1.349.099 6.49 6.49 0 00-1.401.544l-.409-1.175c1.154-.595 2.309-.825 3.464-.689 1.144.134 1.999.53 2.567 1.187.567.657.786 1.532.658 2.623l-.352 3.003c-.044.371.088.58.394.626l-.176 1.494a4.264 4.264 0 01-.804-.014c-.339-.04-.593-.155-.764-.347a1.121 1.121 0 01-.258-.691l.014-.53a3.784 3.784 0 01-1.515.966c-.57.191-1.167.25-1.792.176zm.627-1.231c.424.05.83.022 1.218-.083.4-.114.723-.296.967-.547.245-.164.379-.352.404-.564l.129-1.097a5.35 5.35 0 00-.922-.382 5.109 5.109 0 00-.958-.209c-.625-.073-1.155.004-1.59.232-.423.219-.66.551-.713.996-.048.413.064.781.338 1.103.275.311.651.495 1.127.551z" fill="#000"/><rect x="140.288" y="316.561" width="93.033" height="51.306" rx="15" transform="rotate(-24.484 140.288 316.561)" fill="#fff"/><circle cx="145.957" cy="319.97" r="3.068" fill="#FF3359"/><path d="M178.722 320.012c-.273-.117-.632-.207-1.077-.268a7.675 7.675 0 00-1.527-.095 9.16 9.16 0 00-1.753.205 8.168 8.168 0 00-1.78.579c-1.292.589-2.14 1.261-2.543 2.016-.386.746-.387 1.538-.006 2.376.215.473.485.823.807 1.049.333.2.754.328 1.262.382.5.036 1.092.008 1.775-.083.675-.11 1.459-.247 2.351-.412a25.453 25.453 0 013.009-.414c.933-.073 1.769-.025 2.505.145.737.17 1.392.498 1.965.984.583.46 1.073 1.127 1.471 2 .448.983.642 1.917.583 2.801a5.183 5.183 0 01-.733 2.443c-.438.727-1.035 1.395-1.791 2.003a13.351 13.351 0 01-2.621 1.556 15.564 15.564 0 01-4.585 1.296 13.747 13.747 0 01-4.608-.275l.198-3.255c.345.129.802.24 1.371.332.588.084 1.231.121 1.929.11.709-.036 1.45-.121 2.225-.254a10.306 10.306 0 002.269-.737c1.201-.547 2.034-1.179 2.499-1.896.464-.717.51-1.485.137-2.304-.224-.492-.538-.843-.942-1.055-.386-.22-.86-.344-1.423-.374-.571-.047-1.229-.022-1.976.076-.746.098-1.588.229-2.525.392-1.08.184-2.047.306-2.899.364-.843.032-1.592-.044-2.247-.229a4.634 4.634 0 01-1.727-.895c-.485-.438-.902-1.04-1.25-1.804-.431-.947-.63-1.867-.598-2.761a5.838 5.838 0 01.629-2.528c.405-.799.978-1.521 1.717-2.166.739-.644 1.61-1.194 2.611-1.65 1.31-.597 2.616-.939 3.917-1.026 1.301-.087 2.511-.012 3.63.226l-.249 3.146zm24.041 3.688l1.23 2.703-13.296 6.055-8.827-19.384 13.05-5.943 1.231 2.703-9.993 4.55 2.512 5.515 8.655-3.941 1.156 2.539-8.655 3.941 2.698 5.925 10.239-4.663zm12.101-2.082c-1.383.63-2.772.933-4.168.909a10.719 10.719 0 01-3.928-.881 11.392 11.392 0 01-3.353-2.297 11.41 11.41 0 01-2.309-3.333 10.865 10.865 0 01-.981-4.036c-.066-1.399.104-2.74.508-4.023a10.274 10.274 0 011.967-3.499c.898-1.069 2.02-1.909 3.367-2.523 1.384-.63 2.772-.91 4.166-.842 1.403.042 2.717.345 3.941.909a10.947 10.947 0 013.326 2.309 10.703 10.703 0 012.311 3.266 10.86 10.86 0 01.981 4.036 10.725 10.725 0 01-.509 4.022 10.812 10.812 0 01-1.993 3.513c-.888 1.041-1.997 1.865-3.326 2.47zm-10.646-7.019c.415.91.962 1.726 1.643 2.449a8.075 8.075 0 002.261 1.707c.844.406 1.74.636 2.686.688.939.034 1.881-.164 2.828-.595.983-.448 1.756-1.042 2.32-1.782a6.876 6.876 0 001.193-2.521 8.052 8.052 0 00.169-2.813 9.03 9.03 0 00-.759-2.753 8.804 8.804 0 00-1.643-2.449 7.393 7.393 0 00-2.275-1.667 6.345 6.345 0 00-2.648-.674c-.928-.06-1.857.121-2.785.543-.983.448-1.761 1.055-2.335 1.822a6.684 6.684 0 00-1.217 2.466 8.078 8.078 0 00-.197 2.826c.108.961.361 1.879.759 2.753z" fill="#000"/><rect x="320.59" y="53" width="106.094" height="41.52" rx="15" transform="rotate(15.273 320.59 53)" fill="#fff"/><circle cx="324.715" cy="57.811" r="2.324" fill="#FF3359"/><path d="M350.586 77.016l-4.553-1.244-3.219 11.789-2.18-.595 3.219-11.789-4.573-1.248.521-1.91 11.307 3.087-.522 1.91zm-1.133 12.565a4.132 4.132 0 01-1.307-.606 3.71 3.71 0 01-.896-.97 3.45 3.45 0 01-.44-1.198 3.23 3.23 0 01.092-1.323 2.8 2.8 0 01.662-1.208 3.17 3.17 0 011.142-.766 4.56 4.56 0 011.529-.287c.57-.01 1.17.07 1.8.242.476.13.933.303 1.372.52.442.204.83.427 1.164.67l.19-.694c.204-.746.149-1.383-.163-1.91-.308-.54-.861-.92-1.659-1.138a4.53 4.53 0 00-1.685-.128 8.057 8.057 0 00-1.834.411l-.287-1.53c1.538-.52 3.008-.588 4.41-.205 1.389.38 2.373 1.028 2.952 1.946.578.918.687 2.04.325 3.365l-.996 3.646c-.123.45.001.733.37.848l-.495 1.813a5.596 5.596 0 01-.561-.07 4.847 4.847 0 01-.43-.097c-.412-.112-.705-.303-.881-.572a1.397 1.397 0 01-.189-.901l.116-.653a4.737 4.737 0 01-2.052.912 5.1 5.1 0 01-2.249-.117zm1.005-1.405c.515.14 1.022.183 1.521.125.516-.066.948-.231 1.297-.496.333-.158.535-.365.605-.622l.364-1.332a6.617 6.617 0 00-1.069-.644 6.391 6.391 0 00-1.145-.437c-.759-.207-1.428-.21-2.008-.01-.564.192-.92.558-1.067 1.099-.137.501-.067.977.212 1.426.281.436.712.733 1.29.891zm12.991 5.227c-.81-.222-1.471-.61-1.983-1.164a4.484 4.484 0 01-1.056-1.905l-1.638 6-2.123-.58 3.878-14.2 1.871.512-.495 1.813a4.6 4.6 0 011.881-1.041c.716-.192 1.459-.182 2.231.029a4.44 4.44 0 011.794.946 5 5 0 011.194 1.549c.295.592.472 1.234.531 1.928a5.625 5.625 0 01-.176 2.087 6.582 6.582 0 01-.892 1.975c-.39.57-.85 1.04-1.379 1.406a4.845 4.845 0 01-1.733.73 4.1 4.1 0 01-1.905-.085zm-.199-2.004c.45.123.881.138 1.294.043a3.008 3.008 0 001.156-.514 3.55 3.55 0 00.918-.93 4.02 4.02 0 00.56-1.216c.126-.463.162-.923.107-1.38a3.406 3.406 0 00-.361-1.26 3.049 3.049 0 00-1.964-1.615c-.27-.073-.567-.1-.891-.077a3.488 3.488 0 00-.945.198c-.307.11-.59.26-.849.452-.257.179-.462.4-.616.661l-.722 2.644c.044.343.132.678.265 1.005.132.326.293.619.485.879.205.263.439.493.703.69.265.196.551.336.86.42zm15.57-3.046l-4.515-1.232-2.297 8.412-2.084-.57 2.756-10.09 6.598 1.802-.458 1.678zm3.254 10.135c-.784-.214-1.461-.544-2.031-.99a5.405 5.405 0 01-1.348-1.59 5.484 5.484 0 01-.608-1.95 5.69 5.69 0 01.181-2.106 5.707 5.707 0 01.914-1.907 5.452 5.452 0 011.52-1.389 5.009 5.009 0 011.97-.685c.72-.107 1.479-.052 2.277.166.784.214 1.453.548 2.006 1.003a5.174 5.174 0 011.329 1.587 4.75 4.75 0 01.575 1.919 5.437 5.437 0 01-.434 2.804l-8.084-2.207a3.73 3.73 0 00-.023 1.3c.081.41.22.786.417 1.13.213.334.473.62.782.856.321.24.675.412 1.061.518.283.077.568.12.856.13.304 0 .589-.033.856-.098.27-.078.522-.19.754-.333a2.39 2.39 0 00.599-.521l1.671 1.016c-.554.664-1.304 1.13-2.247 1.397-.928.259-1.925.242-2.993-.05zm4.706-5.162a3.39 3.39 0 00-.006-1.267 2.882 2.882 0 00-.409-1.086 3 3 0 00-.782-.856 3.188 3.188 0 00-1.08-.523 3.2 3.2 0 00-1.197-.098 3.046 3.046 0 00-1.089.345 2.89 2.89 0 00-.904.727 3.684 3.684 0 00-.63 1.093l6.097 1.665zm6.272 7.953l-2.084-.569 2.255-8.258-3.28-.895.501-1.833 8.643 2.36-.5 1.833-3.28-.896-2.255 8.258z" fill="#000"/></svg>