<svg width="57" height="57" fill="none" xmlns="http://www.w3.org/2000/svg"><path d="M53.549 20.04h-10.02v33.62h-3.34V33.398H30.17V53.66h-3.34V26.72H16.81v26.94h-3.34V36.738H3.452V53.66H0V57h57v-3.34h-3.451V20.04zm-6.68 3.339h3.34V53.66h-3.34V23.38zm-13.36 13.36h3.34V53.66h-3.34V36.738zm-13.359-6.68h3.34V53.66h-3.34v-23.6zM6.791 40.079h3.34V53.66H6.79V40.078z" fill="#FF3359"/><path d="M43.53 3.34h7.753l-16.1 16.01-13.36-13.359L.494 27.205l2.354 2.368 18.97-18.865 13.36 13.36L53.66 5.685v7.673H57V0H43.53v3.34z" fill="#FF3359"/></svg>