<svg viewBox="0 0 49 49" fill="none" xmlns="http://www.w3.org/2000/svg"><path d="M0 24.5C0 10.969 10.969 0 24.5 0S49 10.969 49 24.5 38.031 49 24.5 49 0 38.031 0 24.5z" fill="#55ACEE"/><path d="M23.766 19.914l.052.848-.857-.104c-3.12-.398-5.844-1.748-8.158-4.014l-1.13-1.125-.292.83c-.617 1.852-.223 3.807 1.063 5.122.685.727.53.83-.652.398-.41-.139-.77-.242-.805-.19-.12.12.291 1.695.617 2.318.445.865 1.354 1.713 2.348 2.215l.84.397-.995.018c-.96 0-.994.017-.89.38.342 1.125 1.696 2.319 3.204 2.838l1.062.363-.925.554a9.648 9.648 0 01-4.593 1.28c-.77.017-1.405.087-1.405.138 0 .173 2.09 1.142 3.307 1.523 3.65 1.124 7.986.64 11.242-1.28 2.314-1.367 4.628-4.084 5.707-6.713.583-1.402 1.166-3.962 1.166-5.19 0-.796.051-.9 1.01-1.852.566-.553 1.097-1.159 1.2-1.332.172-.329.154-.329-.72-.035-1.456.52-1.662.45-.942-.328.531-.554 1.165-1.557 1.165-1.852 0-.052-.257.035-.548.19-.309.174-.994.433-1.508.589l-.926.294-.84-.57c-.462-.312-1.113-.658-1.456-.762-.874-.242-2.21-.208-2.999.07-2.142.778-3.496 2.785-3.342 4.982z" fill="#fff"/></svg>